<svg version="1.1" id="Layer_1" xmlns="http://www.w3.org/2000/svg" xmlns:xlink="http://www.w3.org/1999/xlink" x="0px" y="0px" width="50px" height="50px" viewBox="0 0 50 50" enable-background="new 0 0 50 50" xml:space="preserve">
<g>
<path fill="#ffffff" d="M26.585,42.144h19.655V26.129H28.04V36.32c0,0.805-0.651,1.456-1.455,1.456V42.144z M26.585,42.144" id="id_105"></path>
<path fill="#333333" d="M44.572,19.133c-2.146-1.342-3.428-3.655-3.428-6.186V8.657c1.204,0,2.184-0.98,2.184-2.184V5.017
		c0-1.204-0.98-2.184-2.184-2.184H30.952c-1.204,0-2.184,0.98-2.184,2.184v1.456c0,1.204,0.98,2.184,2.184,2.184v4.289
		c0,2.531-1.282,4.844-3.429,6.186c-0.395,0.248-0.749,0.551-1.061,0.893c-0.456-1.924-2.185-3.361-4.246-3.361
		c-1.519,0-2.856,0.779-3.64,1.958c-0.783-1.179-2.121-1.958-3.64-1.958c-2.409,0-4.368,1.959-4.368,4.368v0.591
		C9.266,22.38,8.385,23.788,8.385,25.4v2.184H5.473c-2.007,0-3.64,1.633-3.64,3.64v8.007c0,2.007,1.633,3.64,3.64,3.64h2.912v1.456
		c0,2.007,1.633,3.64,3.64,3.64h11.647c0.992,0,1.889-0.4,2.546-1.046c0.674,0.659,1.587,1.046,2.55,1.046h14.559
		c2.007,0,3.64-1.633,3.64-3.64V23.453C46.968,21.685,46.071,20.069,44.572,19.133L44.572,19.133z M30.224,6.473V5.017
		c0-0.402,0.326-0.728,0.728-0.728h10.192c0.402,0,0.728,0.326,0.728,0.728v1.456c0,0.402-0.326,0.728-0.728,0.728h-1.456V5.745
		h-1.456v1.455h-1.456V5.745H35.32v1.455h-1.455V5.745h-1.456v1.455h-1.456C30.551,7.201,30.224,6.875,30.224,6.473L30.224,6.473z
		 M12.753,22.489c1.606,0,2.912,1.306,2.912,2.912h1.455c0-2.409-1.959-4.368-4.368-4.368c-0.248,0-0.49,0.025-0.728,0.065v-0.065
		c0-1.606,1.306-2.912,2.912-2.912c1.606,0,2.912,1.306,2.912,2.912h1.456c0-1.606,1.306-2.912,2.912-2.912
		c1.606,0,2.912,1.306,2.912,2.912v0.065c-0.237-0.04-0.48-0.065-0.728-0.065c-2.409,0-4.368,1.959-4.368,4.368h1.456
		c0-1.606,1.306-2.912,2.912-2.912c1.606,0,2.912,1.306,2.912,2.912v10.92c0,0.402-0.326,0.728-0.728,0.728
		c-0.402,0-0.728-0.326-0.728-0.728v-2.184H24.4c0,0.802-0.654,1.456-1.455,1.456c-0.802,0-1.456-0.654-1.456-1.456v-7.28H9.841
		V25.4C9.841,23.794,11.147,22.489,12.753,22.489L12.753,22.489z M5.473,41.416c-1.204,0-2.184-0.98-2.184-2.184v-8.007
		c0-1.204,0.98-2.184,2.184-2.184h2.912v1.456H6.201c-0.802,0-1.455,0.653-1.455,1.456v6.552c0,0.802,0.654,1.455,1.455,1.455h2.184
		v1.456H5.473z M8.385,31.952v6.552H6.201v-6.552H8.385z M23.672,46.512H12.025c-1.204,0-2.184-0.98-2.184-2.184V28.312h2.184
		v14.559h1.455V28.312h3.64v13.832h1.456V28.312h1.456v5.824c0,1.353,0.931,2.483,2.184,2.809v5.927h1.456v-5.919
		c0.267-0.069,0.52-0.172,0.752-0.309c0.12,0.806,0.684,1.465,1.432,1.731v5.953C25.856,45.532,24.877,46.512,23.672,46.512
		L23.672,46.512z M45.512,44.328c0,1.204-0.98,2.184-2.184,2.184H28.768c-0.678,0-1.303-0.332-1.714-0.861
		c0.162-0.411,0.258-0.855,0.258-1.323V38.37c0.845-0.301,1.456-1.102,1.456-2.05V25.4c0-1.452-0.715-2.737-1.808-3.532
		c0.298-0.61,0.756-1.139,1.336-1.502c2.575-1.61,4.113-4.384,4.113-7.42V8.657h7.28v4.289c0,3.037,1.537,5.81,4.112,7.42
		c1.072,0.67,1.712,1.823,1.712,3.087V44.328z M45.512,44.328" id="id_106"></path>
<rect x="17.12" y="43.599" fill="#333333" width="1.456" height="1.456" id="id_107"></rect>
<path fill="#333333" d="M36.048,28.312c-3.211,0-5.824,2.613-5.824,5.824c0,3.211,2.613,5.824,5.824,5.824
		c3.211,0,5.824-2.613,5.824-5.824C41.872,30.925,39.259,28.312,36.048,28.312L36.048,28.312z M36.048,38.504
		c-2.409,0-4.368-1.959-4.368-4.368c0-2.409,1.959-4.368,4.368-4.368c2.409,0,4.368,1.959,4.368,4.368
		C40.416,36.545,38.457,38.504,36.048,38.504L36.048,38.504z M36.048,38.504" id="id_108"></path>
</g>
</svg>