<?xml version="1.0" encoding="utf-8" standalone="no"?>
<!DOCTYPE svg PUBLIC "-//W3C//DTD SVG 1.1//EN"
  "http://www.w3.org/Graphics/SVG/1.1/DTD/svg11.dtd">
<svg xmlns:xlink="http://www.w3.org/1999/xlink" width="460.8pt" height="345.6pt" viewBox="0 0 460.8 345.6" xmlns="http://www.w3.org/2000/svg" version="1.1">
 <metadata>
  <rdf:RDF xmlns:dc="http://purl.org/dc/elements/1.1/" xmlns:cc="http://creativecommons.org/ns#" xmlns:rdf="http://www.w3.org/1999/02/22-rdf-syntax-ns#">
   <cc:Work>
    <dc:type rdf:resource="http://purl.org/dc/dcmitype/StillImage"/>
    <dc:date>2023-02-04T18:25:42.835820</dc:date>
    <dc:format>image/svg+xml</dc:format>
    <dc:creator>
     <cc:Agent>
      <dc:title>Matplotlib v3.6.3, https://matplotlib.org/</dc:title>
     </cc:Agent>
    </dc:creator>
   </cc:Work>
  </rdf:RDF>
 </metadata>
 <defs>
  <style type="text/css">*{stroke-linejoin: round; stroke-linecap: butt}</style>
 </defs>
 <g id="figure_1">
  <g id="patch_1">
   <path d="M 0 345.6 
L 460.8 345.6 
L 460.8 0 
L 0 0 
z
" style="fill: #ffffff"/>
  </g>
  <g id="axes_1">
   <g id="patch_2">
    <path d="M 57.6 307.584 
L 414.72 307.584 
L 414.72 41.472 
L 57.6 41.472 
z
" style="fill: #ffffff"/>
   </g>
   <g id="matplotlib.axis_1">
    <g id="xtick_1">
     <g id="line2d_1">
      <defs>
       <path id="m4574ddf8cd" d="M 0 0 
L 0 3.5 
" style="stroke: #000000; stroke-width: 0.8"/>
      </defs>
      <g>
       <use xlink:href="#m4574ddf8cd" x="87.796364" y="307.584" style="stroke: #000000; stroke-width: 0.8"/>
      </g>
     </g>
     <g id="text_1">
      <!-- 60 -->
      <g transform="translate(81.433864 322.182437) scale(0.1 -0.1)">
       <defs>
        <path id="DejaVuSans-36" d="M 2113 2584 
Q 1688 2584 1439 2293 
Q 1191 2003 1191 1497 
Q 1191 994 1439 701 
Q 1688 409 2113 409 
Q 2538 409 2786 701 
Q 3034 994 3034 1497 
Q 3034 2003 2786 2293 
Q 2538 2584 2113 2584 
z
M 3366 4563 
L 3366 3988 
Q 3128 4100 2886 4159 
Q 2644 4219 2406 4219 
Q 1781 4219 1451 3797 
Q 1122 3375 1075 2522 
Q 1259 2794 1537 2939 
Q 1816 3084 2150 3084 
Q 2853 3084 3261 2657 
Q 3669 2231 3669 1497 
Q 3669 778 3244 343 
Q 2819 -91 2113 -91 
Q 1303 -91 875 529 
Q 447 1150 447 2328 
Q 447 3434 972 4092 
Q 1497 4750 2381 4750 
Q 2619 4750 2861 4703 
Q 3103 4656 3366 4563 
z
" transform="scale(0.015625)"/>
        <path id="DejaVuSans-30" d="M 2034 4250 
Q 1547 4250 1301 3770 
Q 1056 3291 1056 2328 
Q 1056 1369 1301 889 
Q 1547 409 2034 409 
Q 2525 409 2770 889 
Q 3016 1369 3016 2328 
Q 3016 3291 2770 3770 
Q 2525 4250 2034 4250 
z
M 2034 4750 
Q 2819 4750 3233 4129 
Q 3647 3509 3647 2328 
Q 3647 1150 3233 529 
Q 2819 -91 2034 -91 
Q 1250 -91 836 529 
Q 422 1150 422 2328 
Q 422 3509 836 4129 
Q 1250 4750 2034 4750 
z
" transform="scale(0.015625)"/>
       </defs>
       <use xlink:href="#DejaVuSans-36"/>
       <use xlink:href="#DejaVuSans-30" x="63.623047"/>
      </g>
     </g>
    </g>
    <g id="xtick_2">
     <g id="line2d_2">
      <g>
       <use xlink:href="#m4574ddf8cd" x="157.614545" y="307.584" style="stroke: #000000; stroke-width: 0.8"/>
      </g>
     </g>
     <g id="text_2">
      <!-- 80 -->
      <g transform="translate(151.252045 322.182437) scale(0.1 -0.1)">
       <defs>
        <path id="DejaVuSans-38" d="M 2034 2216 
Q 1584 2216 1326 1975 
Q 1069 1734 1069 1313 
Q 1069 891 1326 650 
Q 1584 409 2034 409 
Q 2484 409 2743 651 
Q 3003 894 3003 1313 
Q 3003 1734 2745 1975 
Q 2488 2216 2034 2216 
z
M 1403 2484 
Q 997 2584 770 2862 
Q 544 3141 544 3541 
Q 544 4100 942 4425 
Q 1341 4750 2034 4750 
Q 2731 4750 3128 4425 
Q 3525 4100 3525 3541 
Q 3525 3141 3298 2862 
Q 3072 2584 2669 2484 
Q 3125 2378 3379 2068 
Q 3634 1759 3634 1313 
Q 3634 634 3220 271 
Q 2806 -91 2034 -91 
Q 1263 -91 848 271 
Q 434 634 434 1313 
Q 434 1759 690 2068 
Q 947 2378 1403 2484 
z
M 1172 3481 
Q 1172 3119 1398 2916 
Q 1625 2713 2034 2713 
Q 2441 2713 2670 2916 
Q 2900 3119 2900 3481 
Q 2900 3844 2670 4047 
Q 2441 4250 2034 4250 
Q 1625 4250 1398 4047 
Q 1172 3844 1172 3481 
z
" transform="scale(0.015625)"/>
       </defs>
       <use xlink:href="#DejaVuSans-38"/>
       <use xlink:href="#DejaVuSans-30" x="63.623047"/>
      </g>
     </g>
    </g>
    <g id="xtick_3">
     <g id="line2d_3">
      <g>
       <use xlink:href="#m4574ddf8cd" x="227.432727" y="307.584" style="stroke: #000000; stroke-width: 0.8"/>
      </g>
     </g>
     <g id="text_3">
      <!-- 100 -->
      <g transform="translate(217.888977 322.182437) scale(0.1 -0.1)">
       <defs>
        <path id="DejaVuSans-31" d="M 794 531 
L 1825 531 
L 1825 4091 
L 703 3866 
L 703 4441 
L 1819 4666 
L 2450 4666 
L 2450 531 
L 3481 531 
L 3481 0 
L 794 0 
L 794 531 
z
" transform="scale(0.015625)"/>
       </defs>
       <use xlink:href="#DejaVuSans-31"/>
       <use xlink:href="#DejaVuSans-30" x="63.623047"/>
       <use xlink:href="#DejaVuSans-30" x="127.246094"/>
      </g>
     </g>
    </g>
    <g id="xtick_4">
     <g id="line2d_4">
      <g>
       <use xlink:href="#m4574ddf8cd" x="297.250909" y="307.584" style="stroke: #000000; stroke-width: 0.8"/>
      </g>
     </g>
     <g id="text_4">
      <!-- 120 -->
      <g transform="translate(287.707159 322.182437) scale(0.1 -0.1)">
       <defs>
        <path id="DejaVuSans-32" d="M 1228 531 
L 3431 531 
L 3431 0 
L 469 0 
L 469 531 
Q 828 903 1448 1529 
Q 2069 2156 2228 2338 
Q 2531 2678 2651 2914 
Q 2772 3150 2772 3378 
Q 2772 3750 2511 3984 
Q 2250 4219 1831 4219 
Q 1534 4219 1204 4116 
Q 875 4013 500 3803 
L 500 4441 
Q 881 4594 1212 4672 
Q 1544 4750 1819 4750 
Q 2544 4750 2975 4387 
Q 3406 4025 3406 3419 
Q 3406 3131 3298 2873 
Q 3191 2616 2906 2266 
Q 2828 2175 2409 1742 
Q 1991 1309 1228 531 
z
" transform="scale(0.015625)"/>
       </defs>
       <use xlink:href="#DejaVuSans-31"/>
       <use xlink:href="#DejaVuSans-32" x="63.623047"/>
       <use xlink:href="#DejaVuSans-30" x="127.246094"/>
      </g>
     </g>
    </g>
    <g id="xtick_5">
     <g id="line2d_5">
      <g>
       <use xlink:href="#m4574ddf8cd" x="367.069091" y="307.584" style="stroke: #000000; stroke-width: 0.8"/>
      </g>
     </g>
     <g id="text_5">
      <!-- 140 -->
      <g transform="translate(357.525341 322.182437) scale(0.1 -0.1)">
       <defs>
        <path id="DejaVuSans-34" d="M 2419 4116 
L 825 1625 
L 2419 1625 
L 2419 4116 
z
M 2253 4666 
L 3047 4666 
L 3047 1625 
L 3713 1625 
L 3713 1100 
L 3047 1100 
L 3047 0 
L 2419 0 
L 2419 1100 
L 313 1100 
L 313 1709 
L 2253 4666 
z
" transform="scale(0.015625)"/>
       </defs>
       <use xlink:href="#DejaVuSans-31"/>
       <use xlink:href="#DejaVuSans-34" x="63.623047"/>
       <use xlink:href="#DejaVuSans-30" x="127.246094"/>
      </g>
     </g>
    </g>
    <g id="text_6">
     <!-- Time -->
     <g transform="translate(223.926406 335.860562) scale(0.1 -0.1)">
      <defs>
       <path id="DejaVuSans-54" d="M -19 4666 
L 3928 4666 
L 3928 4134 
L 2272 4134 
L 2272 0 
L 1638 0 
L 1638 4134 
L -19 4134 
L -19 4666 
z
" transform="scale(0.015625)"/>
       <path id="DejaVuSans-69" d="M 603 3500 
L 1178 3500 
L 1178 0 
L 603 0 
L 603 3500 
z
M 603 4863 
L 1178 4863 
L 1178 4134 
L 603 4134 
L 603 4863 
z
" transform="scale(0.015625)"/>
       <path id="DejaVuSans-6d" d="M 3328 2828 
Q 3544 3216 3844 3400 
Q 4144 3584 4550 3584 
Q 5097 3584 5394 3201 
Q 5691 2819 5691 2113 
L 5691 0 
L 5113 0 
L 5113 2094 
Q 5113 2597 4934 2840 
Q 4756 3084 4391 3084 
Q 3944 3084 3684 2787 
Q 3425 2491 3425 1978 
L 3425 0 
L 2847 0 
L 2847 2094 
Q 2847 2600 2669 2842 
Q 2491 3084 2119 3084 
Q 1678 3084 1418 2786 
Q 1159 2488 1159 1978 
L 1159 0 
L 581 0 
L 581 3500 
L 1159 3500 
L 1159 2956 
Q 1356 3278 1631 3431 
Q 1906 3584 2284 3584 
Q 2666 3584 2933 3390 
Q 3200 3197 3328 2828 
z
" transform="scale(0.015625)"/>
       <path id="DejaVuSans-65" d="M 3597 1894 
L 3597 1613 
L 953 1613 
Q 991 1019 1311 708 
Q 1631 397 2203 397 
Q 2534 397 2845 478 
Q 3156 559 3463 722 
L 3463 178 
Q 3153 47 2828 -22 
Q 2503 -91 2169 -91 
Q 1331 -91 842 396 
Q 353 884 353 1716 
Q 353 2575 817 3079 
Q 1281 3584 2069 3584 
Q 2775 3584 3186 3129 
Q 3597 2675 3597 1894 
z
M 3022 2063 
Q 3016 2534 2758 2815 
Q 2500 3097 2075 3097 
Q 1594 3097 1305 2825 
Q 1016 2553 972 2059 
L 3022 2063 
z
" transform="scale(0.015625)"/>
      </defs>
      <use xlink:href="#DejaVuSans-54"/>
      <use xlink:href="#DejaVuSans-69" x="57.958984"/>
      <use xlink:href="#DejaVuSans-6d" x="85.742188"/>
      <use xlink:href="#DejaVuSans-65" x="183.154297"/>
     </g>
    </g>
   </g>
   <g id="matplotlib.axis_2">
    <g id="ytick_1">
     <g id="line2d_6">
      <defs>
       <path id="m5826b9b130" d="M 0 0 
L -3.5 0 
" style="stroke: #000000; stroke-width: 0.8"/>
      </defs>
      <g>
       <use xlink:href="#m5826b9b130" x="57.6" y="295.488" style="stroke: #000000; stroke-width: 0.8"/>
      </g>
     </g>
     <g id="text_7">
      <!-- 0.0 -->
      <g transform="translate(34.696875 299.287219) scale(0.1 -0.1)">
       <defs>
        <path id="DejaVuSans-2e" d="M 684 794 
L 1344 794 
L 1344 0 
L 684 0 
L 684 794 
z
" transform="scale(0.015625)"/>
       </defs>
       <use xlink:href="#DejaVuSans-30"/>
       <use xlink:href="#DejaVuSans-2e" x="63.623047"/>
       <use xlink:href="#DejaVuSans-30" x="95.410156"/>
      </g>
     </g>
    </g>
    <g id="ytick_2">
     <g id="line2d_7">
      <g>
       <use xlink:href="#m5826b9b130" x="57.6" y="261.027805" style="stroke: #000000; stroke-width: 0.8"/>
      </g>
     </g>
     <g id="text_8">
      <!-- 0.5 -->
      <g transform="translate(34.696875 264.827024) scale(0.1 -0.1)">
       <defs>
        <path id="DejaVuSans-35" d="M 691 4666 
L 3169 4666 
L 3169 4134 
L 1269 4134 
L 1269 2991 
Q 1406 3038 1543 3061 
Q 1681 3084 1819 3084 
Q 2600 3084 3056 2656 
Q 3513 2228 3513 1497 
Q 3513 744 3044 326 
Q 2575 -91 1722 -91 
Q 1428 -91 1123 -41 
Q 819 9 494 109 
L 494 744 
Q 775 591 1075 516 
Q 1375 441 1709 441 
Q 2250 441 2565 725 
Q 2881 1009 2881 1497 
Q 2881 1984 2565 2268 
Q 2250 2553 1709 2553 
Q 1456 2553 1204 2497 
Q 953 2441 691 2322 
L 691 4666 
z
" transform="scale(0.015625)"/>
       </defs>
       <use xlink:href="#DejaVuSans-30"/>
       <use xlink:href="#DejaVuSans-2e" x="63.623047"/>
       <use xlink:href="#DejaVuSans-35" x="95.410156"/>
      </g>
     </g>
    </g>
    <g id="ytick_3">
     <g id="line2d_8">
      <g>
       <use xlink:href="#m5826b9b130" x="57.6" y="226.567611" style="stroke: #000000; stroke-width: 0.8"/>
      </g>
     </g>
     <g id="text_9">
      <!-- 1.0 -->
      <g transform="translate(34.696875 230.36683) scale(0.1 -0.1)">
       <use xlink:href="#DejaVuSans-31"/>
       <use xlink:href="#DejaVuSans-2e" x="63.623047"/>
       <use xlink:href="#DejaVuSans-30" x="95.410156"/>
      </g>
     </g>
    </g>
    <g id="ytick_4">
     <g id="line2d_9">
      <g>
       <use xlink:href="#m5826b9b130" x="57.6" y="192.107416" style="stroke: #000000; stroke-width: 0.8"/>
      </g>
     </g>
     <g id="text_10">
      <!-- 1.5 -->
      <g transform="translate(34.696875 195.906635) scale(0.1 -0.1)">
       <use xlink:href="#DejaVuSans-31"/>
       <use xlink:href="#DejaVuSans-2e" x="63.623047"/>
       <use xlink:href="#DejaVuSans-35" x="95.410156"/>
      </g>
     </g>
    </g>
    <g id="ytick_5">
     <g id="line2d_10">
      <g>
       <use xlink:href="#m5826b9b130" x="57.6" y="157.647222" style="stroke: #000000; stroke-width: 0.8"/>
      </g>
     </g>
     <g id="text_11">
      <!-- 2.0 -->
      <g transform="translate(34.696875 161.44644) scale(0.1 -0.1)">
       <use xlink:href="#DejaVuSans-32"/>
       <use xlink:href="#DejaVuSans-2e" x="63.623047"/>
       <use xlink:href="#DejaVuSans-30" x="95.410156"/>
      </g>
     </g>
    </g>
    <g id="ytick_6">
     <g id="line2d_11">
      <g>
       <use xlink:href="#m5826b9b130" x="57.6" y="123.187027" style="stroke: #000000; stroke-width: 0.8"/>
      </g>
     </g>
     <g id="text_12">
      <!-- 2.5 -->
      <g transform="translate(34.696875 126.986246) scale(0.1 -0.1)">
       <use xlink:href="#DejaVuSans-32"/>
       <use xlink:href="#DejaVuSans-2e" x="63.623047"/>
       <use xlink:href="#DejaVuSans-35" x="95.410156"/>
      </g>
     </g>
    </g>
    <g id="ytick_7">
     <g id="line2d_12">
      <g>
       <use xlink:href="#m5826b9b130" x="57.6" y="88.726832" style="stroke: #000000; stroke-width: 0.8"/>
      </g>
     </g>
     <g id="text_13">
      <!-- 3.0 -->
      <g transform="translate(34.696875 92.526051) scale(0.1 -0.1)">
       <defs>
        <path id="DejaVuSans-33" d="M 2597 2516 
Q 3050 2419 3304 2112 
Q 3559 1806 3559 1356 
Q 3559 666 3084 287 
Q 2609 -91 1734 -91 
Q 1441 -91 1130 -33 
Q 819 25 488 141 
L 488 750 
Q 750 597 1062 519 
Q 1375 441 1716 441 
Q 2309 441 2620 675 
Q 2931 909 2931 1356 
Q 2931 1769 2642 2001 
Q 2353 2234 1838 2234 
L 1294 2234 
L 1294 2753 
L 1863 2753 
Q 2328 2753 2575 2939 
Q 2822 3125 2822 3475 
Q 2822 3834 2567 4026 
Q 2313 4219 1838 4219 
Q 1578 4219 1281 4162 
Q 984 4106 628 3988 
L 628 4550 
Q 988 4650 1302 4700 
Q 1616 4750 1894 4750 
Q 2613 4750 3031 4423 
Q 3450 4097 3450 3541 
Q 3450 3153 3228 2886 
Q 3006 2619 2597 2516 
z
" transform="scale(0.015625)"/>
       </defs>
       <use xlink:href="#DejaVuSans-33"/>
       <use xlink:href="#DejaVuSans-2e" x="63.623047"/>
       <use xlink:href="#DejaVuSans-30" x="95.410156"/>
      </g>
     </g>
    </g>
    <g id="ytick_8">
     <g id="line2d_13">
      <g>
       <use xlink:href="#m5826b9b130" x="57.6" y="54.266638" style="stroke: #000000; stroke-width: 0.8"/>
      </g>
     </g>
     <g id="text_14">
      <!-- 3.5 -->
      <g transform="translate(34.696875 58.065856) scale(0.1 -0.1)">
       <use xlink:href="#DejaVuSans-33"/>
       <use xlink:href="#DejaVuSans-2e" x="63.623047"/>
       <use xlink:href="#DejaVuSans-35" x="95.410156"/>
      </g>
     </g>
    </g>
    <g id="text_15">
     <!-- $ -->
     <g transform="translate(28.617188 177.70925) rotate(-90) scale(0.1 -0.1)">
      <defs>
       <path id="DejaVuSans-24" d="M 2163 -941 
L 1850 -941 
L 1847 0 
Q 1519 6 1191 76 
Q 863 147 531 288 
L 531 850 
Q 850 650 1176 548 
Q 1503 447 1850 444 
L 1850 1869 
Q 1159 1981 845 2250 
Q 531 2519 531 2988 
Q 531 3497 872 3790 
Q 1213 4084 1850 4128 
L 1850 4863 
L 2163 4863 
L 2163 4138 
Q 2453 4125 2725 4076 
Q 2997 4028 3256 3944 
L 3256 3397 
Q 2997 3528 2723 3600 
Q 2450 3672 2163 3684 
L 2163 2350 
Q 2872 2241 3206 1959 
Q 3541 1678 3541 1191 
Q 3541 663 3186 358 
Q 2831 53 2163 6 
L 2163 -941 
z
M 1850 2406 
L 1850 3688 
Q 1488 3647 1297 3481 
Q 1106 3316 1106 3041 
Q 1106 2772 1282 2622 
Q 1459 2472 1850 2406 
z
M 2163 1806 
L 2163 453 
Q 2559 506 2761 678 
Q 2963 850 2963 1131 
Q 2963 1406 2770 1568 
Q 2578 1731 2163 1806 
z
" transform="scale(0.015625)"/>
      </defs>
      <use xlink:href="#DejaVuSans-24"/>
     </g>
    </g>
    <g id="text_16">
     <!-- 1e6 -->
     <g transform="translate(57.6 38.472) scale(0.1 -0.1)">
      <use xlink:href="#DejaVuSans-31"/>
      <use xlink:href="#DejaVuSans-65" x="63.623047"/>
      <use xlink:href="#DejaVuSans-36" x="125.146484"/>
     </g>
    </g>
   </g>
   <g id="line2d_14">
    <path d="M 73.832727 243.797708 
L 77.323636 231.892049 
L 80.814545 219.535102 
L 84.305455 206.713664 
L 87.796364 193.414181 
L 91.287273 179.622748 
L 94.778182 165.325095 
L 98.269091 150.50658 
L 101.76 135.15218 
L 105.250909 119.246481 
L 108.741818 112.011608 
L 112.232727 104.559292 
L 115.723636 96.883756 
L 119.214545 88.979084 
L 122.705455 53.568 
L 126.196364 53.924186 
L 129.687273 54.389351 
L 133.178182 54.967671 
L 136.669091 55.663446 
L 140.16 56.4811 
L 143.650909 57.425189 
L 147.141818 58.500399 
L 150.632727 59.711554 
L 154.123636 61.063616 
L 157.614545 62.561692 
L 161.105455 64.211035 
L 164.596364 66.017048 
L 168.087273 67.985291 
L 171.578182 70.121479 
L 175.069091 72.431495 
L 178.56 74.921384 
L 182.050909 77.597366 
L 185.541818 80.465834 
L 189.032727 83.533363 
L 192.523636 86.806713 
L 196.014545 90.292832 
L 199.505455 93.998865 
L 202.996364 97.932155 
L 206.487273 102.100249 
L 209.978182 106.510906 
L 213.469091 111.172097 
L 216.96 116.092017 
L 220.450909 121.279084 
L 223.941818 126.741952 
L 227.432727 132.48951 
L 230.923636 138.53089 
L 234.414545 144.875478 
L 237.905455 151.532913 
L 241.396364 158.513098 
L 244.887273 165.826206 
L 248.378182 173.482687 
L 251.869091 181.493272 
L 255.36 189.868984 
L 258.850909 198.621144 
L 262.341818 207.761377 
L 265.832727 237.775031 
L 269.323636 269.011864 
L 272.814545 295.488 
L 276.305455 295.488 
L 279.796364 295.488 
L 283.287273 295.488 
L 286.778182 295.488 
L 290.269091 295.488 
L 293.76 295.488 
L 297.250909 295.488 
L 300.741818 295.488 
L 304.232727 295.488 
L 307.723636 295.488 
L 311.214545 295.488 
L 314.705455 295.488 
L 318.196364 295.488 
L 321.687273 295.488 
L 325.178182 295.488 
L 328.669091 295.488 
L 332.16 295.488 
L 335.650909 295.488 
L 339.141818 295.488 
L 342.632727 295.488 
L 346.123636 295.488 
L 349.614545 295.488 
L 353.105455 295.488 
L 356.596364 295.488 
L 360.087273 295.488 
L 363.578182 295.488 
L 367.069091 295.488 
L 370.56 295.488 
L 374.050909 295.488 
L 377.541818 295.488 
L 381.032727 295.488 
L 384.523636 295.488 
L 388.014545 295.488 
L 391.505455 295.488 
L 394.996364 295.488 
L 398.487273 295.488 
" clip-path="url(#p7c81ba8fbd)" style="fill: none; stroke: #0000ff; stroke-width: 1.5; stroke-linecap: square"/>
   </g>
   <g id="line2d_15">
    <path d="M 73.832727 283.08233 
L 77.323636 282.834217 
L 80.814545 282.581141 
L 84.305455 282.323004 
L 87.796364 282.059704 
L 91.287273 281.791138 
L 94.778182 281.517201 
L 98.269091 281.237785 
L 101.76 280.95278 
L 105.250909 279.014751 
L 108.741818 278.685286 
L 112.232727 278.349232 
L 115.723636 278.006456 
L 119.214545 295.488 
L 122.705455 295.488 
L 126.196364 295.488 
L 129.687273 295.488 
L 133.178182 295.488 
L 136.669091 295.488 
L 140.16 295.488 
L 143.650909 295.488 
L 147.141818 295.488 
L 150.632727 295.488 
L 154.123636 295.488 
L 157.614545 295.488 
L 161.105455 295.488 
L 164.596364 295.488 
L 168.087273 295.488 
L 171.578182 295.488 
L 175.069091 295.488 
L 178.56 295.488 
L 182.050909 295.488 
L 185.541818 295.488 
L 189.032727 295.488 
L 192.523636 295.488 
L 196.014545 295.488 
L 199.505455 295.488 
L 202.996364 295.488 
L 206.487273 295.488 
L 209.978182 295.488 
L 213.469091 295.488 
L 216.96 295.488 
L 220.450909 295.488 
L 223.941818 295.488 
L 227.432727 295.488 
L 230.923636 295.488 
L 234.414545 295.488 
L 237.905455 295.488 
L 241.396364 295.488 
L 244.887273 295.488 
L 248.378182 295.488 
L 251.869091 295.488 
L 255.36 295.488 
L 258.850909 295.488 
L 262.341818 295.488 
L 265.832727 295.488 
L 269.323636 295.488 
L 272.814545 295.488 
L 276.305455 295.488 
L 279.796364 295.488 
L 283.287273 295.488 
L 286.778182 295.488 
L 290.269091 295.488 
L 293.76 295.488 
L 297.250909 295.488 
L 300.741818 295.488 
L 304.232727 295.488 
L 307.723636 295.488 
L 311.214545 295.488 
L 314.705455 295.488 
L 318.196364 295.488 
L 321.687273 295.488 
L 325.178182 295.488 
L 328.669091 295.488 
L 332.16 295.488 
L 335.650909 295.488 
L 339.141818 295.488 
L 342.632727 295.488 
L 346.123636 295.488 
L 349.614545 295.488 
L 353.105455 295.488 
L 356.596364 295.488 
L 360.087273 295.488 
L 363.578182 295.488 
L 367.069091 295.488 
L 370.56 295.488 
L 374.050909 295.488 
L 377.541818 295.488 
L 381.032727 295.488 
L 384.523636 295.488 
L 388.014545 295.488 
L 391.505455 295.488 
L 394.996364 295.488 
L 398.487273 295.488 
" clip-path="url(#p7c81ba8fbd)" style="fill: none; stroke: #1f77b4; stroke-width: 1.5; stroke-linecap: square"/>
   </g>
   <g id="line2d_16">
    <path d="M 73.832727 287.906757 
L 77.323636 287.755132 
L 80.814545 287.600475 
L 84.305455 287.442724 
L 87.796364 287.281819 
L 91.287273 287.117695 
L 94.778182 286.950289 
L 98.269091 286.779535 
L 101.76 286.605366 
L 105.250909 295.488 
L 108.741818 295.488 
L 112.232727 295.488 
L 115.723636 295.488 
L 119.214545 295.488 
L 122.705455 295.488 
L 126.196364 295.488 
L 129.687273 295.488 
L 133.178182 295.488 
L 136.669091 295.488 
L 140.16 295.488 
L 143.650909 295.488 
L 147.141818 295.488 
L 150.632727 295.488 
L 154.123636 295.488 
L 157.614545 295.488 
L 161.105455 295.488 
L 164.596364 295.488 
L 168.087273 295.488 
L 171.578182 295.488 
L 175.069091 295.488 
L 178.56 295.488 
L 182.050909 295.488 
L 185.541818 295.488 
L 189.032727 295.488 
L 192.523636 295.488 
L 196.014545 295.488 
L 199.505455 295.488 
L 202.996364 295.488 
L 206.487273 295.488 
L 209.978182 295.488 
L 213.469091 295.488 
L 216.96 295.488 
L 220.450909 295.488 
L 223.941818 295.488 
L 227.432727 295.488 
L 230.923636 295.488 
L 234.414545 295.488 
L 237.905455 295.488 
L 241.396364 295.488 
L 244.887273 295.488 
L 248.378182 295.488 
L 251.869091 295.488 
L 255.36 295.488 
L 258.850909 295.488 
L 262.341818 295.488 
L 265.832727 295.488 
L 269.323636 295.488 
L 272.814545 295.488 
L 276.305455 295.488 
L 279.796364 295.488 
L 283.287273 295.488 
L 286.778182 295.488 
L 290.269091 295.488 
L 293.76 295.488 
L 297.250909 295.488 
L 300.741818 295.488 
L 304.232727 295.488 
L 307.723636 295.488 
L 311.214545 295.488 
L 314.705455 295.488 
L 318.196364 295.488 
L 321.687273 295.488 
L 325.178182 295.488 
L 328.669091 295.488 
L 332.16 295.488 
L 335.650909 295.488 
L 339.141818 295.488 
L 342.632727 295.488 
L 346.123636 295.488 
L 349.614545 295.488 
L 353.105455 295.488 
L 356.596364 295.488 
L 360.087273 295.488 
L 363.578182 295.488 
L 367.069091 295.488 
L 370.56 295.488 
L 374.050909 295.488 
L 377.541818 295.488 
L 381.032727 295.488 
L 384.523636 295.488 
L 388.014545 295.488 
L 391.505455 295.488 
L 394.996364 295.488 
L 398.487273 295.488 
" clip-path="url(#p7c81ba8fbd)" style="fill: none; stroke: #ff7f0e; stroke-width: 1.5; stroke-linecap: square"/>
   </g>
   <g id="line2d_17">
    <path d="M 73.832727 291.008175 
L 77.323636 290.918578 
L 80.814545 290.82719 
L 84.305455 290.733974 
L 87.796364 290.638893 
L 91.287273 290.541911 
L 94.778182 290.442989 
L 98.269091 290.342089 
L 101.76 290.239171 
L 105.250909 290.134194 
L 108.741818 290.027118 
L 112.232727 289.9179 
L 115.723636 289.806498 
L 119.214545 289.692868 
L 122.705455 289.576966 
L 126.196364 289.458745 
L 129.687273 289.33816 
L 133.178182 289.215163 
L 136.669091 289.089706 
L 140.16 288.96174 
L 143.650909 288.831215 
L 147.141818 288.69808 
L 150.632727 288.562281 
L 154.123636 288.423767 
L 157.614545 288.282482 
L 161.105455 288.138372 
L 164.596364 287.991379 
L 168.087273 287.841447 
L 171.578182 287.688516 
L 175.069091 287.532526 
L 178.56 287.373417 
L 182.050909 287.211125 
L 185.541818 287.045587 
L 189.032727 286.876739 
L 192.523636 286.704514 
L 196.014545 286.528844 
L 199.505455 286.349661 
L 202.996364 286.166894 
L 206.487273 285.980472 
L 209.978182 285.790322 
L 213.469091 285.596368 
L 216.96 285.398535 
L 220.450909 285.196746 
L 223.941818 284.990921 
L 227.432727 284.780979 
L 230.923636 284.566839 
L 234.414545 284.348416 
L 237.905455 284.125624 
L 241.396364 283.898377 
L 244.887273 283.666584 
L 248.378182 283.430156 
L 251.869091 283.188999 
L 255.36 282.943019 
L 258.850909 282.692119 
L 262.341818 282.436202 
L 265.832727 282.175166 
L 269.323636 281.908909 
L 272.814545 281.637327 
L 276.305455 281.360314 
L 279.796364 281.07776 
L 283.287273 280.789555 
L 286.778182 280.495586 
L 290.269091 280.195738 
L 293.76 279.889893 
L 297.250909 279.577931 
L 300.741818 279.259729 
L 304.232727 278.935164 
L 307.723636 278.604107 
L 311.214545 278.266429 
L 314.705455 277.921998 
L 318.196364 277.570678 
L 321.687273 277.212331 
L 325.178182 276.846818 
L 328.669091 276.473994 
L 332.16 276.093714 
L 335.650909 275.705829 
L 339.141818 275.310185 
L 342.632727 274.906629 
L 346.123636 274.495001 
L 349.614545 274.075141 
L 353.105455 273.646884 
L 356.596364 273.210062 
L 360.087273 272.764503 
L 363.578182 272.310033 
L 367.069091 271.846474 
L 370.56 271.373643 
L 374.050909 270.891356 
L 377.541818 270.399423 
L 381.032727 269.897652 
L 384.523636 269.385845 
L 388.014545 268.863802 
L 391.505455 268.331318 
L 394.996364 267.788184 
L 398.487273 267.234188 
" clip-path="url(#p7c81ba8fbd)" style="fill: none; stroke: #2ca02c; stroke-width: 1.5; stroke-linecap: square"/>
   </g>
   <g id="line2d_18">
    <path d="M 73.832727 295.488 
L 77.323636 295.488 
L 80.814545 295.488 
L 84.305455 295.488 
L 87.796364 295.488 
L 91.287273 295.488 
L 94.778182 295.488 
L 98.269091 295.488 
L 101.76 295.488 
L 105.250909 295.488 
L 108.741818 295.488 
L 112.232727 295.488 
L 115.723636 295.488 
L 119.214545 286.572413 
L 122.705455 286.394101 
L 126.196364 286.212223 
L 129.687273 286.026707 
L 133.178182 285.837482 
L 136.669091 285.644471 
L 140.16 285.447601 
L 143.650909 285.246793 
L 147.141818 285.041969 
L 150.632727 284.833048 
L 154.123636 284.619949 
L 157.614545 284.402588 
L 161.105455 284.18088 
L 164.596364 283.954737 
L 168.087273 283.724072 
L 171.578182 283.488793 
L 175.069091 283.248809 
L 178.56 283.004025 
L 182.050909 282.754346 
L 185.541818 282.499673 
L 189.032727 282.239906 
L 192.523636 281.974944 
L 196.014545 281.704683 
L 199.505455 281.429017 
L 202.996364 281.147837 
L 206.487273 280.861034 
L 209.978182 280.568495 
L 213.469091 280.270105 
L 216.96 279.965747 
L 220.450909 279.655302 
L 223.941818 279.338648 
L 227.432727 279.015661 
L 230.923636 278.686214 
L 234.414545 278.350178 
L 237.905455 278.007422 
L 241.396364 277.65781 
L 244.887273 277.301206 
L 248.378182 276.937471 
L 251.869091 276.56646 
L 255.36 276.188029 
L 258.850909 275.80203 
L 262.341818 275.40831 
L 265.832727 275.006717 
L 269.323636 274.597091 
L 272.814545 274.179273 
L 276.305455 273.753098 
L 279.796364 273.3184 
L 283.287273 272.875008 
L 286.778182 272.422748 
L 290.269091 271.961443 
L 293.76 271.490912 
L 297.250909 271.01097 
L 300.741818 270.52143 
L 304.232727 270.022098 
L 307.723636 269.51278 
L 311.214545 268.993276 
L 314.705455 268.463381 
L 318.196364 267.922889 
L 321.687273 267.371587 
L 325.178182 266.809259 
L 328.669091 266.235684 
L 332.16 265.650637 
L 335.650909 265.05389 
L 339.141818 264.445208 
L 342.632727 263.824352 
L 346.123636 263.191079 
L 349.614545 262.545141 
L 353.105455 261.886284 
L 356.596364 261.214249 
L 360.087273 260.528774 
L 363.578182 259.82959 
L 367.069091 259.116422 
L 370.56 258.38899 
L 374.050909 257.64701 
L 377.541818 256.89019 
L 381.032727 256.118234 
L 384.523636 255.330838 
L 388.014545 254.527695 
L 391.505455 253.708489 
L 394.996364 252.872899 
L 398.487273 252.020597 
" clip-path="url(#p7c81ba8fbd)" style="fill: none; stroke: #d62728; stroke-width: 1.5; stroke-linecap: square"/>
   </g>
   <g id="line2d_19">
    <path d="M 73.832727 295.488 
L 77.323636 295.488 
L 80.814545 295.488 
L 84.305455 295.488 
L 87.796364 295.488 
L 91.287273 295.488 
L 94.778182 295.488 
L 98.269091 295.488 
L 101.76 295.488 
L 105.250909 295.488 
L 108.741818 295.488 
L 112.232727 295.488 
L 115.723636 295.488 
L 119.214545 184.043159 
L 122.705455 295.488 
L 126.196364 295.488 
L 129.687273 295.488 
L 133.178182 295.488 
L 136.669091 295.488 
L 140.16 295.488 
L 143.650909 295.488 
L 147.141818 295.488 
L 150.632727 295.488 
L 154.123636 295.488 
L 157.614545 295.488 
L 161.105455 295.488 
L 164.596364 295.488 
L 168.087273 295.488 
L 171.578182 295.488 
L 175.069091 295.488 
L 178.56 295.488 
L 182.050909 295.488 
L 185.541818 295.488 
L 189.032727 295.488 
L 192.523636 295.488 
L 196.014545 295.488 
L 199.505455 295.488 
L 202.996364 295.488 
L 206.487273 295.488 
L 209.978182 295.488 
L 213.469091 295.488 
L 216.96 295.488 
L 220.450909 295.488 
L 223.941818 295.488 
L 227.432727 295.488 
L 230.923636 295.488 
L 234.414545 295.488 
L 237.905455 295.488 
L 241.396364 295.488 
L 244.887273 295.488 
L 248.378182 295.488 
L 251.869091 295.488 
L 255.36 295.488 
L 258.850909 295.488 
L 262.341818 295.488 
L 265.832727 295.488 
L 269.323636 295.488 
L 272.814545 295.488 
L 276.305455 295.488 
L 279.796364 295.488 
L 283.287273 295.488 
L 286.778182 295.488 
L 290.269091 295.488 
L 293.76 295.488 
L 297.250909 295.488 
L 300.741818 295.488 
L 304.232727 295.488 
L 307.723636 295.488 
L 311.214545 295.488 
L 314.705455 295.488 
L 318.196364 295.488 
L 321.687273 295.488 
L 325.178182 295.488 
L 328.669091 295.488 
L 332.16 295.488 
L 335.650909 295.488 
L 339.141818 295.488 
L 342.632727 295.488 
L 346.123636 295.488 
L 349.614545 295.488 
L 353.105455 295.488 
L 356.596364 295.488 
L 360.087273 295.488 
L 363.578182 295.488 
L 367.069091 295.488 
L 370.56 295.488 
L 374.050909 295.488 
L 377.541818 295.488 
L 381.032727 295.488 
L 384.523636 295.488 
L 388.014545 295.488 
L 391.505455 295.488 
L 394.996364 295.488 
L 398.487273 295.488 
" clip-path="url(#p7c81ba8fbd)" style="fill: none; stroke: #9467bd; stroke-width: 1.5; stroke-linecap: square"/>
   </g>
   <g id="line2d_20">
    <path d="M 73.832727 295.488 
L 77.323636 295.488 
L 80.814545 295.488 
L 84.305455 295.488 
L 87.796364 295.488 
L 91.287273 295.488 
L 94.778182 295.488 
L 98.269091 295.488 
L 101.76 295.488 
L 105.250909 295.488 
L 108.741818 295.488 
L 112.232727 295.488 
L 115.723636 295.488 
L 119.214545 219.705508 
L 122.705455 295.488 
L 126.196364 295.488 
L 129.687273 295.488 
L 133.178182 295.488 
L 136.669091 295.488 
L 140.16 295.488 
L 143.650909 295.488 
L 147.141818 295.488 
L 150.632727 295.488 
L 154.123636 295.488 
L 157.614545 295.488 
L 161.105455 295.488 
L 164.596364 295.488 
L 168.087273 295.488 
L 171.578182 295.488 
L 175.069091 295.488 
L 178.56 295.488 
L 182.050909 295.488 
L 185.541818 295.488 
L 189.032727 295.488 
L 192.523636 295.488 
L 196.014545 295.488 
L 199.505455 295.488 
L 202.996364 295.488 
L 206.487273 295.488 
L 209.978182 295.488 
L 213.469091 295.488 
L 216.96 295.488 
L 220.450909 295.488 
L 223.941818 295.488 
L 227.432727 295.488 
L 230.923636 295.488 
L 234.414545 295.488 
L 237.905455 295.488 
L 241.396364 295.488 
L 244.887273 295.488 
L 248.378182 295.488 
L 251.869091 295.488 
L 255.36 295.488 
L 258.850909 295.488 
L 262.341818 295.488 
L 265.832727 295.488 
L 269.323636 295.488 
L 272.814545 295.488 
L 276.305455 295.488 
L 279.796364 295.488 
L 283.287273 295.488 
L 286.778182 295.488 
L 290.269091 295.488 
L 293.76 295.488 
L 297.250909 295.488 
L 300.741818 295.488 
L 304.232727 295.488 
L 307.723636 295.488 
L 311.214545 295.488 
L 314.705455 295.488 
L 318.196364 295.488 
L 321.687273 295.488 
L 325.178182 295.488 
L 328.669091 295.488 
L 332.16 295.488 
L 335.650909 295.488 
L 339.141818 295.488 
L 342.632727 295.488 
L 346.123636 295.488 
L 349.614545 295.488 
L 353.105455 295.488 
L 356.596364 295.488 
L 360.087273 295.488 
L 363.578182 295.488 
L 367.069091 295.488 
L 370.56 295.488 
L 374.050909 295.488 
L 377.541818 295.488 
L 381.032727 295.488 
L 384.523636 295.488 
L 388.014545 295.488 
L 391.505455 295.488 
L 394.996364 295.488 
L 398.487273 295.488 
" clip-path="url(#p7c81ba8fbd)" style="fill: none; stroke: #8c564b; stroke-width: 1.5; stroke-linecap: square"/>
   </g>
   <g id="patch_3">
    <path d="M 57.6 307.584 
L 57.6 41.472 
" style="fill: none; stroke: #000000; stroke-width: 0.8; stroke-linejoin: miter; stroke-linecap: square"/>
   </g>
   <g id="patch_4">
    <path d="M 414.72 307.584 
L 414.72 41.472 
" style="fill: none; stroke: #000000; stroke-width: 0.8; stroke-linejoin: miter; stroke-linecap: square"/>
   </g>
   <g id="patch_5">
    <path d="M 57.6 307.584 
L 414.72 307.584 
" style="fill: none; stroke: #000000; stroke-width: 0.8; stroke-linejoin: miter; stroke-linecap: square"/>
   </g>
   <g id="patch_6">
    <path d="M 57.6 41.472 
L 414.72 41.472 
" style="fill: none; stroke: #000000; stroke-width: 0.8; stroke-linejoin: miter; stroke-linecap: square"/>
   </g>
   <g id="text_17">
    <!-- Cash Flow Forecast -->
    <g transform="translate(178.47375 35.472) scale(0.12 -0.12)">
     <defs>
      <path id="DejaVuSans-43" d="M 4122 4306 
L 4122 3641 
Q 3803 3938 3442 4084 
Q 3081 4231 2675 4231 
Q 1875 4231 1450 3742 
Q 1025 3253 1025 2328 
Q 1025 1406 1450 917 
Q 1875 428 2675 428 
Q 3081 428 3442 575 
Q 3803 722 4122 1019 
L 4122 359 
Q 3791 134 3420 21 
Q 3050 -91 2638 -91 
Q 1578 -91 968 557 
Q 359 1206 359 2328 
Q 359 3453 968 4101 
Q 1578 4750 2638 4750 
Q 3056 4750 3426 4639 
Q 3797 4528 4122 4306 
z
" transform="scale(0.015625)"/>
      <path id="DejaVuSans-61" d="M 2194 1759 
Q 1497 1759 1228 1600 
Q 959 1441 959 1056 
Q 959 750 1161 570 
Q 1363 391 1709 391 
Q 2188 391 2477 730 
Q 2766 1069 2766 1631 
L 2766 1759 
L 2194 1759 
z
M 3341 1997 
L 3341 0 
L 2766 0 
L 2766 531 
Q 2569 213 2275 61 
Q 1981 -91 1556 -91 
Q 1019 -91 701 211 
Q 384 513 384 1019 
Q 384 1609 779 1909 
Q 1175 2209 1959 2209 
L 2766 2209 
L 2766 2266 
Q 2766 2663 2505 2880 
Q 2244 3097 1772 3097 
Q 1472 3097 1187 3025 
Q 903 2953 641 2809 
L 641 3341 
Q 956 3463 1253 3523 
Q 1550 3584 1831 3584 
Q 2591 3584 2966 3190 
Q 3341 2797 3341 1997 
z
" transform="scale(0.015625)"/>
      <path id="DejaVuSans-73" d="M 2834 3397 
L 2834 2853 
Q 2591 2978 2328 3040 
Q 2066 3103 1784 3103 
Q 1356 3103 1142 2972 
Q 928 2841 928 2578 
Q 928 2378 1081 2264 
Q 1234 2150 1697 2047 
L 1894 2003 
Q 2506 1872 2764 1633 
Q 3022 1394 3022 966 
Q 3022 478 2636 193 
Q 2250 -91 1575 -91 
Q 1294 -91 989 -36 
Q 684 19 347 128 
L 347 722 
Q 666 556 975 473 
Q 1284 391 1588 391 
Q 1994 391 2212 530 
Q 2431 669 2431 922 
Q 2431 1156 2273 1281 
Q 2116 1406 1581 1522 
L 1381 1569 
Q 847 1681 609 1914 
Q 372 2147 372 2553 
Q 372 3047 722 3315 
Q 1072 3584 1716 3584 
Q 2034 3584 2315 3537 
Q 2597 3491 2834 3397 
z
" transform="scale(0.015625)"/>
      <path id="DejaVuSans-68" d="M 3513 2113 
L 3513 0 
L 2938 0 
L 2938 2094 
Q 2938 2591 2744 2837 
Q 2550 3084 2163 3084 
Q 1697 3084 1428 2787 
Q 1159 2491 1159 1978 
L 1159 0 
L 581 0 
L 581 4863 
L 1159 4863 
L 1159 2956 
Q 1366 3272 1645 3428 
Q 1925 3584 2291 3584 
Q 2894 3584 3203 3211 
Q 3513 2838 3513 2113 
z
" transform="scale(0.015625)"/>
      <path id="DejaVuSans-20" transform="scale(0.015625)"/>
      <path id="DejaVuSans-46" d="M 628 4666 
L 3309 4666 
L 3309 4134 
L 1259 4134 
L 1259 2759 
L 3109 2759 
L 3109 2228 
L 1259 2228 
L 1259 0 
L 628 0 
L 628 4666 
z
" transform="scale(0.015625)"/>
      <path id="DejaVuSans-6c" d="M 603 4863 
L 1178 4863 
L 1178 0 
L 603 0 
L 603 4863 
z
" transform="scale(0.015625)"/>
      <path id="DejaVuSans-6f" d="M 1959 3097 
Q 1497 3097 1228 2736 
Q 959 2375 959 1747 
Q 959 1119 1226 758 
Q 1494 397 1959 397 
Q 2419 397 2687 759 
Q 2956 1122 2956 1747 
Q 2956 2369 2687 2733 
Q 2419 3097 1959 3097 
z
M 1959 3584 
Q 2709 3584 3137 3096 
Q 3566 2609 3566 1747 
Q 3566 888 3137 398 
Q 2709 -91 1959 -91 
Q 1206 -91 779 398 
Q 353 888 353 1747 
Q 353 2609 779 3096 
Q 1206 3584 1959 3584 
z
" transform="scale(0.015625)"/>
      <path id="DejaVuSans-77" d="M 269 3500 
L 844 3500 
L 1563 769 
L 2278 3500 
L 2956 3500 
L 3675 769 
L 4391 3500 
L 4966 3500 
L 4050 0 
L 3372 0 
L 2619 2869 
L 1863 0 
L 1184 0 
L 269 3500 
z
" transform="scale(0.015625)"/>
      <path id="DejaVuSans-72" d="M 2631 2963 
Q 2534 3019 2420 3045 
Q 2306 3072 2169 3072 
Q 1681 3072 1420 2755 
Q 1159 2438 1159 1844 
L 1159 0 
L 581 0 
L 581 3500 
L 1159 3500 
L 1159 2956 
Q 1341 3275 1631 3429 
Q 1922 3584 2338 3584 
Q 2397 3584 2469 3576 
Q 2541 3569 2628 3553 
L 2631 2963 
z
" transform="scale(0.015625)"/>
      <path id="DejaVuSans-63" d="M 3122 3366 
L 3122 2828 
Q 2878 2963 2633 3030 
Q 2388 3097 2138 3097 
Q 1578 3097 1268 2742 
Q 959 2388 959 1747 
Q 959 1106 1268 751 
Q 1578 397 2138 397 
Q 2388 397 2633 464 
Q 2878 531 3122 666 
L 3122 134 
Q 2881 22 2623 -34 
Q 2366 -91 2075 -91 
Q 1284 -91 818 406 
Q 353 903 353 1747 
Q 353 2603 823 3093 
Q 1294 3584 2113 3584 
Q 2378 3584 2631 3529 
Q 2884 3475 3122 3366 
z
" transform="scale(0.015625)"/>
      <path id="DejaVuSans-74" d="M 1172 4494 
L 1172 3500 
L 2356 3500 
L 2356 3053 
L 1172 3053 
L 1172 1153 
Q 1172 725 1289 603 
Q 1406 481 1766 481 
L 2356 481 
L 2356 0 
L 1766 0 
Q 1100 0 847 248 
Q 594 497 594 1153 
L 594 3053 
L 172 3053 
L 172 3500 
L 594 3500 
L 594 4494 
L 1172 4494 
z
" transform="scale(0.015625)"/>
     </defs>
     <use xlink:href="#DejaVuSans-43"/>
     <use xlink:href="#DejaVuSans-61" x="69.824219"/>
     <use xlink:href="#DejaVuSans-73" x="131.103516"/>
     <use xlink:href="#DejaVuSans-68" x="183.203125"/>
     <use xlink:href="#DejaVuSans-20" x="246.582031"/>
     <use xlink:href="#DejaVuSans-46" x="278.369141"/>
     <use xlink:href="#DejaVuSans-6c" x="335.888672"/>
     <use xlink:href="#DejaVuSans-6f" x="363.671875"/>
     <use xlink:href="#DejaVuSans-77" x="424.853516"/>
     <use xlink:href="#DejaVuSans-20" x="506.640625"/>
     <use xlink:href="#DejaVuSans-46" x="538.427734"/>
     <use xlink:href="#DejaVuSans-6f" x="592.322266"/>
     <use xlink:href="#DejaVuSans-72" x="653.503906"/>
     <use xlink:href="#DejaVuSans-65" x="692.367188"/>
     <use xlink:href="#DejaVuSans-63" x="753.890625"/>
     <use xlink:href="#DejaVuSans-61" x="808.871094"/>
     <use xlink:href="#DejaVuSans-73" x="870.150391"/>
     <use xlink:href="#DejaVuSans-74" x="922.25"/>
    </g>
   </g>
  </g>
 </g>
 <defs>
  <clipPath id="p7c81ba8fbd">
   <rect x="57.6" y="41.472" width="357.12" height="266.112"/>
  </clipPath>
 </defs>
</svg>
