<?xml version="1.0" encoding="utf-8" standalone="no"?>
<!DOCTYPE svg PUBLIC "-//W3C//DTD SVG 1.1//EN"
  "http://www.w3.org/Graphics/SVG/1.1/DTD/svg11.dtd">
<svg xmlns:xlink="http://www.w3.org/1999/xlink" width="1000pt" height="500pt" viewBox="0 0 1000 500" xmlns="http://www.w3.org/2000/svg" version="1.1">
 <metadata>
  <rdf:RDF xmlns:dc="http://purl.org/dc/elements/1.1/" xmlns:cc="http://creativecommons.org/ns#" xmlns:rdf="http://www.w3.org/1999/02/22-rdf-syntax-ns#">
   <cc:Work>
    <dc:type rdf:resource="http://purl.org/dc/dcmitype/StillImage"/>
    <dc:date>2023-02-12T12:18:23.235155</dc:date>
    <dc:format>image/svg+xml</dc:format>
    <dc:creator>
     <cc:Agent>
      <dc:title>Matplotlib v3.6.3, https://matplotlib.org/</dc:title>
     </cc:Agent>
    </dc:creator>
   </cc:Work>
  </rdf:RDF>
 </metadata>
 <defs>
  <style type="text/css">*{stroke-linejoin: round; stroke-linecap: butt}</style>
 </defs>
 <g id="figure_1">
  <g id="patch_1">
   <path d="M 0 500 
L 1000 500 
L 1000 0 
L 0 0 
z
" style="fill: #ffffff"/>
  </g>
  <g id="axes_1">
   <g id="patch_2">
    <path d="M 125 445 
L 900 445 
L 900 60 
L 125 60 
z
" style="fill: #eaeaf2"/>
   </g>
   <g id="matplotlib.axis_1">
    <g id="xtick_1">
     <g id="line2d_1">
      <path d="M 190.530303 445 
L 190.530303 60 
" clip-path="url(#pd60bad3700)" style="fill: none; stroke: #ffffff; stroke-linecap: round"/>
     </g>
     <g id="line2d_2"/>
     <g id="text_1">
      <!-- 60 -->
      <g style="fill: #262626" transform="translate(184.969366 459.157812) scale(0.1 -0.1)">
       <defs>
        <path id="ArialMT-36" d="M 3184 3459 
L 2625 3416 
Q 2550 3747 2413 3897 
Q 2184 4138 1850 4138 
Q 1581 4138 1378 3988 
Q 1113 3794 959 3422 
Q 806 3050 800 2363 
Q 1003 2672 1297 2822 
Q 1591 2972 1913 2972 
Q 2475 2972 2870 2558 
Q 3266 2144 3266 1488 
Q 3266 1056 3080 686 
Q 2894 316 2569 119 
Q 2244 -78 1831 -78 
Q 1128 -78 684 439 
Q 241 956 241 2144 
Q 241 3472 731 4075 
Q 1159 4600 1884 4600 
Q 2425 4600 2770 4297 
Q 3116 3994 3184 3459 
z
M 888 1484 
Q 888 1194 1011 928 
Q 1134 663 1356 523 
Q 1578 384 1822 384 
Q 2178 384 2434 671 
Q 2691 959 2691 1453 
Q 2691 1928 2437 2201 
Q 2184 2475 1800 2475 
Q 1419 2475 1153 2201 
Q 888 1928 888 1484 
z
" transform="scale(0.015625)"/>
        <path id="ArialMT-30" d="M 266 2259 
Q 266 3072 433 3567 
Q 600 4063 929 4331 
Q 1259 4600 1759 4600 
Q 2128 4600 2406 4451 
Q 2684 4303 2865 4023 
Q 3047 3744 3150 3342 
Q 3253 2941 3253 2259 
Q 3253 1453 3087 958 
Q 2922 463 2592 192 
Q 2263 -78 1759 -78 
Q 1097 -78 719 397 
Q 266 969 266 2259 
z
M 844 2259 
Q 844 1131 1108 757 
Q 1372 384 1759 384 
Q 2147 384 2411 759 
Q 2675 1134 2675 2259 
Q 2675 3391 2411 3762 
Q 2147 4134 1753 4134 
Q 1366 4134 1134 3806 
Q 844 3388 844 2259 
z
" transform="scale(0.015625)"/>
       </defs>
       <use xlink:href="#ArialMT-36"/>
       <use xlink:href="#ArialMT-30" x="55.615234"/>
      </g>
     </g>
    </g>
    <g id="xtick_2">
     <g id="line2d_3">
      <path d="M 342.045455 445 
L 342.045455 60 
" clip-path="url(#pd60bad3700)" style="fill: none; stroke: #ffffff; stroke-linecap: round"/>
     </g>
     <g id="line2d_4"/>
     <g id="text_2">
      <!-- 80 -->
      <g style="fill: #262626" transform="translate(336.484517 459.157812) scale(0.1 -0.1)">
       <defs>
        <path id="ArialMT-38" d="M 1131 2484 
Q 781 2613 612 2850 
Q 444 3088 444 3419 
Q 444 3919 803 4259 
Q 1163 4600 1759 4600 
Q 2359 4600 2725 4251 
Q 3091 3903 3091 3403 
Q 3091 3084 2923 2848 
Q 2756 2613 2416 2484 
Q 2838 2347 3058 2040 
Q 3278 1734 3278 1309 
Q 3278 722 2862 322 
Q 2447 -78 1769 -78 
Q 1091 -78 675 323 
Q 259 725 259 1325 
Q 259 1772 486 2073 
Q 713 2375 1131 2484 
z
M 1019 3438 
Q 1019 3113 1228 2906 
Q 1438 2700 1772 2700 
Q 2097 2700 2305 2904 
Q 2513 3109 2513 3406 
Q 2513 3716 2298 3927 
Q 2084 4138 1766 4138 
Q 1444 4138 1231 3931 
Q 1019 3725 1019 3438 
z
M 838 1322 
Q 838 1081 952 856 
Q 1066 631 1291 507 
Q 1516 384 1775 384 
Q 2178 384 2440 643 
Q 2703 903 2703 1303 
Q 2703 1709 2433 1975 
Q 2163 2241 1756 2241 
Q 1359 2241 1098 1978 
Q 838 1716 838 1322 
z
" transform="scale(0.015625)"/>
       </defs>
       <use xlink:href="#ArialMT-38"/>
       <use xlink:href="#ArialMT-30" x="55.615234"/>
      </g>
     </g>
    </g>
    <g id="xtick_3">
     <g id="line2d_5">
      <path d="M 493.560606 445 
L 493.560606 60 
" clip-path="url(#pd60bad3700)" style="fill: none; stroke: #ffffff; stroke-linecap: round"/>
     </g>
     <g id="line2d_6"/>
     <g id="text_3">
      <!-- 100 -->
      <g style="fill: #262626" transform="translate(485.2192 459.157812) scale(0.1 -0.1)">
       <defs>
        <path id="ArialMT-31" d="M 2384 0 
L 1822 0 
L 1822 3584 
Q 1619 3391 1289 3197 
Q 959 3003 697 2906 
L 697 3450 
Q 1169 3672 1522 3987 
Q 1875 4303 2022 4600 
L 2384 4600 
L 2384 0 
z
" transform="scale(0.015625)"/>
       </defs>
       <use xlink:href="#ArialMT-31"/>
       <use xlink:href="#ArialMT-30" x="55.615234"/>
       <use xlink:href="#ArialMT-30" x="111.230469"/>
      </g>
     </g>
    </g>
    <g id="xtick_4">
     <g id="line2d_7">
      <path d="M 645.075758 445 
L 645.075758 60 
" clip-path="url(#pd60bad3700)" style="fill: none; stroke: #ffffff; stroke-linecap: round"/>
     </g>
     <g id="line2d_8"/>
     <g id="text_4">
      <!-- 120 -->
      <g style="fill: #262626" transform="translate(636.734351 459.157812) scale(0.1 -0.1)">
       <defs>
        <path id="ArialMT-32" d="M 3222 541 
L 3222 0 
L 194 0 
Q 188 203 259 391 
Q 375 700 629 1000 
Q 884 1300 1366 1694 
Q 2113 2306 2375 2664 
Q 2638 3022 2638 3341 
Q 2638 3675 2398 3904 
Q 2159 4134 1775 4134 
Q 1369 4134 1125 3890 
Q 881 3647 878 3216 
L 300 3275 
Q 359 3922 746 4261 
Q 1134 4600 1788 4600 
Q 2447 4600 2831 4234 
Q 3216 3869 3216 3328 
Q 3216 3053 3103 2787 
Q 2991 2522 2730 2228 
Q 2469 1934 1863 1422 
Q 1356 997 1212 845 
Q 1069 694 975 541 
L 3222 541 
z
" transform="scale(0.015625)"/>
       </defs>
       <use xlink:href="#ArialMT-31"/>
       <use xlink:href="#ArialMT-32" x="55.615234"/>
       <use xlink:href="#ArialMT-30" x="111.230469"/>
      </g>
     </g>
    </g>
    <g id="xtick_5">
     <g id="line2d_9">
      <path d="M 796.590909 445 
L 796.590909 60 
" clip-path="url(#pd60bad3700)" style="fill: none; stroke: #ffffff; stroke-linecap: round"/>
     </g>
     <g id="line2d_10"/>
     <g id="text_5">
      <!-- 140 -->
      <g style="fill: #262626" transform="translate(788.249503 459.157812) scale(0.1 -0.1)">
       <defs>
        <path id="ArialMT-34" d="M 2069 0 
L 2069 1097 
L 81 1097 
L 81 1613 
L 2172 4581 
L 2631 4581 
L 2631 1613 
L 3250 1613 
L 3250 1097 
L 2631 1097 
L 2631 0 
L 2069 0 
z
M 2069 1613 
L 2069 3678 
L 634 1613 
L 2069 1613 
z
" transform="scale(0.015625)"/>
       </defs>
       <use xlink:href="#ArialMT-31"/>
       <use xlink:href="#ArialMT-34" x="55.615234"/>
       <use xlink:href="#ArialMT-30" x="111.230469"/>
      </g>
     </g>
    </g>
    <g id="text_6">
     <!-- Your Age -->
     <g style="fill: #262626" transform="translate(490.373672 473.018906) scale(0.11 -0.11)">
      <defs>
       <path id="ArialMT-59" d="M 1784 0 
L 1784 1941 
L 19 4581 
L 756 4581 
L 1659 3200 
Q 1909 2813 2125 2425 
Q 2331 2784 2625 3234 
L 3513 4581 
L 4219 4581 
L 2391 1941 
L 2391 0 
L 1784 0 
z
" transform="scale(0.015625)"/>
       <path id="ArialMT-6f" d="M 213 1659 
Q 213 2581 725 3025 
Q 1153 3394 1769 3394 
Q 2453 3394 2887 2945 
Q 3322 2497 3322 1706 
Q 3322 1066 3130 698 
Q 2938 331 2570 128 
Q 2203 -75 1769 -75 
Q 1072 -75 642 372 
Q 213 819 213 1659 
z
M 791 1659 
Q 791 1022 1069 705 
Q 1347 388 1769 388 
Q 2188 388 2466 706 
Q 2744 1025 2744 1678 
Q 2744 2294 2464 2611 
Q 2184 2928 1769 2928 
Q 1347 2928 1069 2612 
Q 791 2297 791 1659 
z
" transform="scale(0.015625)"/>
       <path id="ArialMT-75" d="M 2597 0 
L 2597 488 
Q 2209 -75 1544 -75 
Q 1250 -75 995 37 
Q 741 150 617 320 
Q 494 491 444 738 
Q 409 903 409 1263 
L 409 3319 
L 972 3319 
L 972 1478 
Q 972 1038 1006 884 
Q 1059 663 1231 536 
Q 1403 409 1656 409 
Q 1909 409 2131 539 
Q 2353 669 2445 892 
Q 2538 1116 2538 1541 
L 2538 3319 
L 3100 3319 
L 3100 0 
L 2597 0 
z
" transform="scale(0.015625)"/>
       <path id="ArialMT-72" d="M 416 0 
L 416 3319 
L 922 3319 
L 922 2816 
Q 1116 3169 1280 3281 
Q 1444 3394 1641 3394 
Q 1925 3394 2219 3213 
L 2025 2691 
Q 1819 2813 1613 2813 
Q 1428 2813 1281 2702 
Q 1134 2591 1072 2394 
Q 978 2094 978 1738 
L 978 0 
L 416 0 
z
" transform="scale(0.015625)"/>
       <path id="ArialMT-20" transform="scale(0.015625)"/>
       <path id="ArialMT-41" d="M -9 0 
L 1750 4581 
L 2403 4581 
L 4278 0 
L 3588 0 
L 3053 1388 
L 1138 1388 
L 634 0 
L -9 0 
z
M 1313 1881 
L 2866 1881 
L 2388 3150 
Q 2169 3728 2063 4100 
Q 1975 3659 1816 3225 
L 1313 1881 
z
" transform="scale(0.015625)"/>
       <path id="ArialMT-67" d="M 319 -275 
L 866 -356 
Q 900 -609 1056 -725 
Q 1266 -881 1628 -881 
Q 2019 -881 2231 -725 
Q 2444 -569 2519 -288 
Q 2563 -116 2559 434 
Q 2191 0 1641 0 
Q 956 0 581 494 
Q 206 988 206 1678 
Q 206 2153 378 2554 
Q 550 2956 876 3175 
Q 1203 3394 1644 3394 
Q 2231 3394 2613 2919 
L 2613 3319 
L 3131 3319 
L 3131 450 
Q 3131 -325 2973 -648 
Q 2816 -972 2473 -1159 
Q 2131 -1347 1631 -1347 
Q 1038 -1347 672 -1080 
Q 306 -813 319 -275 
z
M 784 1719 
Q 784 1066 1043 766 
Q 1303 466 1694 466 
Q 2081 466 2343 764 
Q 2606 1063 2606 1700 
Q 2606 2309 2336 2618 
Q 2066 2928 1684 2928 
Q 1309 2928 1046 2623 
Q 784 2319 784 1719 
z
" transform="scale(0.015625)"/>
       <path id="ArialMT-65" d="M 2694 1069 
L 3275 997 
Q 3138 488 2766 206 
Q 2394 -75 1816 -75 
Q 1088 -75 661 373 
Q 234 822 234 1631 
Q 234 2469 665 2931 
Q 1097 3394 1784 3394 
Q 2450 3394 2872 2941 
Q 3294 2488 3294 1666 
Q 3294 1616 3291 1516 
L 816 1516 
Q 847 969 1125 678 
Q 1403 388 1819 388 
Q 2128 388 2347 550 
Q 2566 713 2694 1069 
z
M 847 1978 
L 2700 1978 
Q 2663 2397 2488 2606 
Q 2219 2931 1791 2931 
Q 1403 2931 1139 2672 
Q 875 2413 847 1978 
z
" transform="scale(0.015625)"/>
      </defs>
      <use xlink:href="#ArialMT-59"/>
      <use xlink:href="#ArialMT-6f" x="57.574219"/>
      <use xlink:href="#ArialMT-75" x="113.189453"/>
      <use xlink:href="#ArialMT-72" x="168.804688"/>
      <use xlink:href="#ArialMT-20" x="202.105469"/>
      <use xlink:href="#ArialMT-41" x="224.388672"/>
      <use xlink:href="#ArialMT-67" x="291.087891"/>
      <use xlink:href="#ArialMT-65" x="346.703125"/>
     </g>
    </g>
   </g>
   <g id="matplotlib.axis_2">
    <g id="ytick_1">
     <g id="line2d_11">
      <path d="M 125 427.5 
L 900 427.5 
" clip-path="url(#pd60bad3700)" style="fill: none; stroke: #ffffff; stroke-linecap: round"/>
     </g>
     <g id="line2d_12"/>
     <g id="text_7">
      <!-- 0 -->
      <g style="fill: #262626" transform="translate(112.439063 431.078906) scale(0.1 -0.1)">
       <use xlink:href="#ArialMT-30"/>
      </g>
     </g>
    </g>
    <g id="ytick_2">
     <g id="line2d_13">
      <path d="M 125 350.99541 
L 900 350.99541 
" clip-path="url(#pd60bad3700)" style="fill: none; stroke: #ffffff; stroke-linecap: round"/>
     </g>
     <g id="line2d_14"/>
     <g id="text_8">
      <!-- 1 -->
      <g style="fill: #262626" transform="translate(112.439063 354.574316) scale(0.1 -0.1)">
       <use xlink:href="#ArialMT-31"/>
      </g>
     </g>
    </g>
    <g id="ytick_3">
     <g id="line2d_15">
      <path d="M 125 274.49082 
L 900 274.49082 
" clip-path="url(#pd60bad3700)" style="fill: none; stroke: #ffffff; stroke-linecap: round"/>
     </g>
     <g id="line2d_16"/>
     <g id="text_9">
      <!-- 2 -->
      <g style="fill: #262626" transform="translate(112.439063 278.069727) scale(0.1 -0.1)">
       <use xlink:href="#ArialMT-32"/>
      </g>
     </g>
    </g>
    <g id="ytick_4">
     <g id="line2d_17">
      <path d="M 125 197.98623 
L 900 197.98623 
" clip-path="url(#pd60bad3700)" style="fill: none; stroke: #ffffff; stroke-linecap: round"/>
     </g>
     <g id="line2d_18"/>
     <g id="text_10">
      <!-- 3 -->
      <g style="fill: #262626" transform="translate(112.439063 201.565137) scale(0.1 -0.1)">
       <defs>
        <path id="ArialMT-33" d="M 269 1209 
L 831 1284 
Q 928 806 1161 595 
Q 1394 384 1728 384 
Q 2125 384 2398 659 
Q 2672 934 2672 1341 
Q 2672 1728 2419 1979 
Q 2166 2231 1775 2231 
Q 1616 2231 1378 2169 
L 1441 2663 
Q 1497 2656 1531 2656 
Q 1891 2656 2178 2843 
Q 2466 3031 2466 3422 
Q 2466 3731 2256 3934 
Q 2047 4138 1716 4138 
Q 1388 4138 1169 3931 
Q 950 3725 888 3313 
L 325 3413 
Q 428 3978 793 4289 
Q 1159 4600 1703 4600 
Q 2078 4600 2393 4439 
Q 2709 4278 2876 4000 
Q 3044 3722 3044 3409 
Q 3044 3113 2884 2869 
Q 2725 2625 2413 2481 
Q 2819 2388 3044 2092 
Q 3269 1797 3269 1353 
Q 3269 753 2831 336 
Q 2394 -81 1725 -81 
Q 1122 -81 723 278 
Q 325 638 269 1209 
z
" transform="scale(0.015625)"/>
       </defs>
       <use xlink:href="#ArialMT-33"/>
      </g>
     </g>
    </g>
    <g id="ytick_5">
     <g id="line2d_19">
      <path d="M 125 121.481641 
L 900 121.481641 
" clip-path="url(#pd60bad3700)" style="fill: none; stroke: #ffffff; stroke-linecap: round"/>
     </g>
     <g id="line2d_20"/>
     <g id="text_11">
      <!-- 4 -->
      <g style="fill: #262626" transform="translate(112.439063 125.060547) scale(0.1 -0.1)">
       <use xlink:href="#ArialMT-34"/>
      </g>
     </g>
    </g>
    <g id="text_12">
     <!-- Total Cash (in Millions $) -->
     <g style="fill: #262626" transform="translate(106.123906 312.403594) rotate(-90) scale(0.11 -0.11)">
      <defs>
       <path id="ArialMT-54" d="M 1659 0 
L 1659 4041 
L 150 4041 
L 150 4581 
L 3781 4581 
L 3781 4041 
L 2266 4041 
L 2266 0 
L 1659 0 
z
" transform="scale(0.015625)"/>
       <path id="ArialMT-74" d="M 1650 503 
L 1731 6 
Q 1494 -44 1306 -44 
Q 1000 -44 831 53 
Q 663 150 594 308 
Q 525 466 525 972 
L 525 2881 
L 113 2881 
L 113 3319 
L 525 3319 
L 525 4141 
L 1084 4478 
L 1084 3319 
L 1650 3319 
L 1650 2881 
L 1084 2881 
L 1084 941 
Q 1084 700 1114 631 
Q 1144 563 1211 522 
Q 1278 481 1403 481 
Q 1497 481 1650 503 
z
" transform="scale(0.015625)"/>
       <path id="ArialMT-61" d="M 2588 409 
Q 2275 144 1986 34 
Q 1697 -75 1366 -75 
Q 819 -75 525 192 
Q 231 459 231 875 
Q 231 1119 342 1320 
Q 453 1522 633 1644 
Q 813 1766 1038 1828 
Q 1203 1872 1538 1913 
Q 2219 1994 2541 2106 
Q 2544 2222 2544 2253 
Q 2544 2597 2384 2738 
Q 2169 2928 1744 2928 
Q 1347 2928 1158 2789 
Q 969 2650 878 2297 
L 328 2372 
Q 403 2725 575 2942 
Q 747 3159 1072 3276 
Q 1397 3394 1825 3394 
Q 2250 3394 2515 3294 
Q 2781 3194 2906 3042 
Q 3031 2891 3081 2659 
Q 3109 2516 3109 2141 
L 3109 1391 
Q 3109 606 3145 398 
Q 3181 191 3288 0 
L 2700 0 
Q 2613 175 2588 409 
z
M 2541 1666 
Q 2234 1541 1622 1453 
Q 1275 1403 1131 1340 
Q 988 1278 909 1158 
Q 831 1038 831 891 
Q 831 666 1001 516 
Q 1172 366 1500 366 
Q 1825 366 2078 508 
Q 2331 650 2450 897 
Q 2541 1088 2541 1459 
L 2541 1666 
z
" transform="scale(0.015625)"/>
       <path id="ArialMT-6c" d="M 409 0 
L 409 4581 
L 972 4581 
L 972 0 
L 409 0 
z
" transform="scale(0.015625)"/>
       <path id="ArialMT-43" d="M 3763 1606 
L 4369 1453 
Q 4178 706 3683 314 
Q 3188 -78 2472 -78 
Q 1731 -78 1267 223 
Q 803 525 561 1097 
Q 319 1669 319 2325 
Q 319 3041 592 3573 
Q 866 4106 1370 4382 
Q 1875 4659 2481 4659 
Q 3169 4659 3637 4309 
Q 4106 3959 4291 3325 
L 3694 3184 
Q 3534 3684 3231 3912 
Q 2928 4141 2469 4141 
Q 1941 4141 1586 3887 
Q 1231 3634 1087 3207 
Q 944 2781 944 2328 
Q 944 1744 1114 1308 
Q 1284 872 1643 656 
Q 2003 441 2422 441 
Q 2931 441 3284 734 
Q 3638 1028 3763 1606 
z
" transform="scale(0.015625)"/>
       <path id="ArialMT-73" d="M 197 991 
L 753 1078 
Q 800 744 1014 566 
Q 1228 388 1613 388 
Q 2000 388 2187 545 
Q 2375 703 2375 916 
Q 2375 1106 2209 1216 
Q 2094 1291 1634 1406 
Q 1016 1563 777 1677 
Q 538 1791 414 1992 
Q 291 2194 291 2438 
Q 291 2659 392 2848 
Q 494 3038 669 3163 
Q 800 3259 1026 3326 
Q 1253 3394 1513 3394 
Q 1903 3394 2198 3281 
Q 2494 3169 2634 2976 
Q 2775 2784 2828 2463 
L 2278 2388 
Q 2241 2644 2061 2787 
Q 1881 2931 1553 2931 
Q 1166 2931 1000 2803 
Q 834 2675 834 2503 
Q 834 2394 903 2306 
Q 972 2216 1119 2156 
Q 1203 2125 1616 2013 
Q 2213 1853 2448 1751 
Q 2684 1650 2818 1456 
Q 2953 1263 2953 975 
Q 2953 694 2789 445 
Q 2625 197 2315 61 
Q 2006 -75 1616 -75 
Q 969 -75 630 194 
Q 291 463 197 991 
z
" transform="scale(0.015625)"/>
       <path id="ArialMT-68" d="M 422 0 
L 422 4581 
L 984 4581 
L 984 2938 
Q 1378 3394 1978 3394 
Q 2347 3394 2619 3248 
Q 2891 3103 3008 2847 
Q 3125 2591 3125 2103 
L 3125 0 
L 2563 0 
L 2563 2103 
Q 2563 2525 2380 2717 
Q 2197 2909 1863 2909 
Q 1613 2909 1392 2779 
Q 1172 2650 1078 2428 
Q 984 2206 984 1816 
L 984 0 
L 422 0 
z
" transform="scale(0.015625)"/>
       <path id="ArialMT-28" d="M 1497 -1347 
Q 1031 -759 709 28 
Q 388 816 388 1659 
Q 388 2403 628 3084 
Q 909 3875 1497 4659 
L 1900 4659 
Q 1522 4009 1400 3731 
Q 1209 3300 1100 2831 
Q 966 2247 966 1656 
Q 966 153 1900 -1347 
L 1497 -1347 
z
" transform="scale(0.015625)"/>
       <path id="ArialMT-69" d="M 425 3934 
L 425 4581 
L 988 4581 
L 988 3934 
L 425 3934 
z
M 425 0 
L 425 3319 
L 988 3319 
L 988 0 
L 425 0 
z
" transform="scale(0.015625)"/>
       <path id="ArialMT-6e" d="M 422 0 
L 422 3319 
L 928 3319 
L 928 2847 
Q 1294 3394 1984 3394 
Q 2284 3394 2536 3286 
Q 2788 3178 2913 3003 
Q 3038 2828 3088 2588 
Q 3119 2431 3119 2041 
L 3119 0 
L 2556 0 
L 2556 2019 
Q 2556 2363 2490 2533 
Q 2425 2703 2258 2804 
Q 2091 2906 1866 2906 
Q 1506 2906 1245 2678 
Q 984 2450 984 1813 
L 984 0 
L 422 0 
z
" transform="scale(0.015625)"/>
       <path id="ArialMT-4d" d="M 475 0 
L 475 4581 
L 1388 4581 
L 2472 1338 
Q 2622 884 2691 659 
Q 2769 909 2934 1394 
L 4031 4581 
L 4847 4581 
L 4847 0 
L 4263 0 
L 4263 3834 
L 2931 0 
L 2384 0 
L 1059 3900 
L 1059 0 
L 475 0 
z
" transform="scale(0.015625)"/>
       <path id="ArialMT-24" d="M 1594 -659 
L 1594 -97 
Q 1172 -44 908 92 
Q 644 228 451 531 
Q 259 834 228 1272 
L 794 1378 
Q 859 925 1025 713 
Q 1263 413 1594 378 
L 1594 2169 
Q 1247 2234 884 2438 
Q 616 2588 470 2853 
Q 325 3119 325 3456 
Q 325 4056 750 4428 
Q 1034 4678 1594 4734 
L 1594 5003 
L 1925 5003 
L 1925 4734 
Q 2416 4688 2703 4447 
Q 3072 4141 3147 3606 
L 2566 3519 
Q 2516 3850 2358 4026 
Q 2200 4203 1925 4259 
L 1925 2638 
Q 2350 2531 2488 2472 
Q 2750 2356 2915 2190 
Q 3081 2025 3170 1797 
Q 3259 1569 3259 1303 
Q 3259 719 2887 328 
Q 2516 -63 1925 -91 
L 1925 -659 
L 1594 -659 
z
M 1594 4266 
Q 1266 4216 1077 4003 
Q 888 3791 888 3500 
Q 888 3213 1048 3019 
Q 1209 2825 1594 2709 
L 1594 4266 
z
M 1925 378 
Q 2253 419 2467 662 
Q 2681 906 2681 1266 
Q 2681 1572 2529 1758 
Q 2378 1944 1925 2091 
L 1925 378 
z
" transform="scale(0.015625)"/>
       <path id="ArialMT-29" d="M 791 -1347 
L 388 -1347 
Q 1322 153 1322 1656 
Q 1322 2244 1188 2822 
Q 1081 3291 891 3722 
Q 769 4003 388 4659 
L 791 4659 
Q 1378 3875 1659 3084 
Q 1900 2403 1900 1659 
Q 1900 816 1576 28 
Q 1253 -759 791 -1347 
z
" transform="scale(0.015625)"/>
      </defs>
      <use xlink:href="#ArialMT-54"/>
      <use xlink:href="#ArialMT-6f" x="49.958984"/>
      <use xlink:href="#ArialMT-74" x="105.574219"/>
      <use xlink:href="#ArialMT-61" x="133.357422"/>
      <use xlink:href="#ArialMT-6c" x="188.972656"/>
      <use xlink:href="#ArialMT-20" x="211.189453"/>
      <use xlink:href="#ArialMT-43" x="238.972656"/>
      <use xlink:href="#ArialMT-61" x="311.189453"/>
      <use xlink:href="#ArialMT-73" x="366.804688"/>
      <use xlink:href="#ArialMT-68" x="416.804688"/>
      <use xlink:href="#ArialMT-20" x="472.419922"/>
      <use xlink:href="#ArialMT-28" x="500.203125"/>
      <use xlink:href="#ArialMT-69" x="533.503906"/>
      <use xlink:href="#ArialMT-6e" x="555.720703"/>
      <use xlink:href="#ArialMT-20" x="611.335938"/>
      <use xlink:href="#ArialMT-4d" x="639.119141"/>
      <use xlink:href="#ArialMT-69" x="722.419922"/>
      <use xlink:href="#ArialMT-6c" x="744.636719"/>
      <use xlink:href="#ArialMT-6c" x="766.853516"/>
      <use xlink:href="#ArialMT-69" x="789.070312"/>
      <use xlink:href="#ArialMT-6f" x="811.287109"/>
      <use xlink:href="#ArialMT-6e" x="866.902344"/>
      <use xlink:href="#ArialMT-73" x="922.517578"/>
      <use xlink:href="#ArialMT-20" x="972.517578"/>
      <use xlink:href="#ArialMT-24" x="1000.300781"/>
      <use xlink:href="#ArialMT-29" x="1055.916016"/>
     </g>
    </g>
    <g id="text_13">
     <!-- 1e6 -->
     <g style="fill: #262626" transform="translate(125 57) scale(0.1 -0.1)">
      <use xlink:href="#ArialMT-31"/>
      <use xlink:href="#ArialMT-65" x="55.615234"/>
      <use xlink:href="#ArialMT-36" x="111.230469"/>
     </g>
    </g>
   </g>
   <g id="line2d_21">
    <path d="M 160.227273 312.743115 
L 167.80303 298.402255 
L 175.378788 283.538387 
L 182.954545 268.136419 
L 190.530303 252.180869 
L 198.106061 235.655849 
L 205.681818 218.545061 
L 213.257576 200.831785 
L 220.833333 182.498867 
L 228.409091 163.528711 
L 235.984848 154.157777 
L 243.560606 144.519198 
L 251.136364 134.60605 
L 258.712121 124.411235 
L 266.287879 83.655275 
L 273.863636 82.574125 
L 281.439394 81.584994 
L 289.015152 80.691951 
L 296.590909 79.89919 
L 304.166667 79.211031 
L 311.742424 78.631931 
L 319.318182 78.166477 
L 326.893939 77.819399 
L 334.469697 77.595568 
L 342.045455 77.5 
L 349.621212 77.537865 
L 357.19697 77.714484 
L 364.772727 78.035339 
L 372.348485 78.506073 
L 379.924242 79.132497 
L 387.5 79.920592 
L 395.075758 80.876517 
L 402.651515 82.00661 
L 410.227273 83.317394 
L 417.80303 84.815583 
L 425.378788 86.508085 
L 432.954545 88.40201 
L 440.530303 90.504672 
L 448.106061 92.823595 
L 455.681818 95.366521 
L 463.257576 98.141412 
L 470.833333 101.156459 
L 478.409091 104.420085 
L 485.984848 107.940955 
L 493.560606 111.727977 
L 501.136364 115.790312 
L 508.712121 120.137379 
L 516.287879 124.778863 
L 523.863636 129.724721 
L 531.439394 134.985188 
L 539.015152 140.570786 
L 546.590909 146.492328 
L 554.166667 152.760931 
L 561.742424 159.388019 
L 569.318182 166.385333 
L 576.893939 173.764937 
L 584.469697 181.539229 
L 592.045455 189.720948 
L 599.621212 198.323183 
L 607.19697 207.35938 
L 614.772727 216.843355 
L 622.348485 226.789299 
L 629.924242 237.211791 
L 637.5 248.125805 
L 645.075758 259.546723 
L 652.651515 271.490342 
L 660.227273 283.972885 
L 667.80303 297.011016 
L 675.378788 340.020817 
L 682.954545 384.785316 
L 690.530303 427.5 
L 698.106061 427.5 
L 705.681818 427.5 
L 713.257576 427.5 
L 720.833333 427.5 
L 728.409091 427.5 
L 735.984848 427.5 
L 743.560606 427.5 
L 751.136364 427.5 
L 758.712121 427.5 
L 766.287879 427.5 
L 773.863636 427.5 
L 781.439394 427.5 
L 789.015152 427.5 
L 796.590909 427.5 
L 804.166667 427.5 
L 811.742424 427.5 
L 819.318182 427.5 
L 826.893939 427.5 
L 834.469697 427.5 
L 842.045455 427.5 
L 849.621212 427.5 
L 857.19697 427.5 
L 864.772727 427.5 
" clip-path="url(#pd60bad3700)" style="fill: none; stroke: #0000ff; stroke-width: 1.75; stroke-linecap: round"/>
   </g>
   <g id="line2d_22">
    <path d="M 160.227273 413.729174 
L 167.80303 413.453757 
L 175.378788 413.172832 
L 182.954545 412.886289 
L 190.530303 412.594015 
L 198.106061 412.295895 
L 205.681818 411.991813 
L 213.257576 411.681649 
L 220.833333 411.365282 
L 228.409091 409.213987 
L 235.984848 408.848266 
L 243.560606 408.475232 
L 251.136364 408.094736 
L 258.712121 427.5 
L 266.287879 427.5 
L 273.863636 427.5 
L 281.439394 427.5 
L 289.015152 427.5 
L 296.590909 427.5 
L 304.166667 427.5 
L 311.742424 427.5 
L 319.318182 427.5 
L 326.893939 427.5 
L 334.469697 427.5 
L 342.045455 427.5 
L 349.621212 427.5 
L 357.19697 427.5 
L 364.772727 427.5 
L 372.348485 427.5 
L 379.924242 427.5 
L 387.5 427.5 
L 395.075758 427.5 
L 402.651515 427.5 
L 410.227273 427.5 
L 417.80303 427.5 
L 425.378788 427.5 
L 432.954545 427.5 
L 440.530303 427.5 
L 448.106061 427.5 
L 455.681818 427.5 
L 463.257576 427.5 
L 470.833333 427.5 
L 478.409091 427.5 
L 485.984848 427.5 
L 493.560606 427.5 
L 501.136364 427.5 
L 508.712121 427.5 
L 516.287879 427.5 
L 523.863636 427.5 
L 531.439394 427.5 
L 539.015152 427.5 
L 546.590909 427.5 
L 554.166667 427.5 
L 561.742424 427.5 
L 569.318182 427.5 
L 576.893939 427.5 
L 584.469697 427.5 
L 592.045455 427.5 
L 599.621212 427.5 
L 607.19697 427.5 
L 614.772727 427.5 
L 622.348485 427.5 
L 629.924242 427.5 
L 637.5 427.5 
L 645.075758 427.5 
L 652.651515 427.5 
L 660.227273 427.5 
L 667.80303 427.5 
L 675.378788 427.5 
L 682.954545 427.5 
L 690.530303 427.5 
L 698.106061 427.5 
L 705.681818 427.5 
L 713.257576 427.5 
L 720.833333 427.5 
L 728.409091 427.5 
L 735.984848 427.5 
L 743.560606 427.5 
L 751.136364 427.5 
L 758.712121 427.5 
L 766.287879 427.5 
L 773.863636 427.5 
L 781.439394 427.5 
L 789.015152 427.5 
L 796.590909 427.5 
L 804.166667 427.5 
L 811.742424 427.5 
L 819.318182 427.5 
L 826.893939 427.5 
L 834.469697 427.5 
L 842.045455 427.5 
L 849.621212 427.5 
L 857.19697 427.5 
L 864.772727 427.5 
" clip-path="url(#pd60bad3700)" style="fill: none; stroke: #4c72b0; stroke-width: 1.75; stroke-linecap: round"/>
   </g>
   <g id="line2d_23">
    <path d="M 160.227273 419.084495 
L 167.80303 418.916185 
L 175.378788 418.744509 
L 182.954545 418.569399 
L 190.530303 418.390787 
L 198.106061 418.208603 
L 205.681818 418.022775 
L 213.257576 417.83323 
L 220.833333 417.639895 
L 228.409091 427.5 
L 235.984848 427.5 
L 243.560606 427.5 
L 251.136364 427.5 
L 258.712121 427.5 
L 266.287879 427.5 
L 273.863636 427.5 
L 281.439394 427.5 
L 289.015152 427.5 
L 296.590909 427.5 
L 304.166667 427.5 
L 311.742424 427.5 
L 319.318182 427.5 
L 326.893939 427.5 
L 334.469697 427.5 
L 342.045455 427.5 
L 349.621212 427.5 
L 357.19697 427.5 
L 364.772727 427.5 
L 372.348485 427.5 
L 379.924242 427.5 
L 387.5 427.5 
L 395.075758 427.5 
L 402.651515 427.5 
L 410.227273 427.5 
L 417.80303 427.5 
L 425.378788 427.5 
L 432.954545 427.5 
L 440.530303 427.5 
L 448.106061 427.5 
L 455.681818 427.5 
L 463.257576 427.5 
L 470.833333 427.5 
L 478.409091 427.5 
L 485.984848 427.5 
L 493.560606 427.5 
L 501.136364 427.5 
L 508.712121 427.5 
L 516.287879 427.5 
L 523.863636 427.5 
L 531.439394 427.5 
L 539.015152 427.5 
L 546.590909 427.5 
L 554.166667 427.5 
L 561.742424 427.5 
L 569.318182 427.5 
L 576.893939 427.5 
L 584.469697 427.5 
L 592.045455 427.5 
L 599.621212 427.5 
L 607.19697 427.5 
L 614.772727 427.5 
L 622.348485 427.5 
L 629.924242 427.5 
L 637.5 427.5 
L 645.075758 427.5 
L 652.651515 427.5 
L 660.227273 427.5 
L 667.80303 427.5 
L 675.378788 427.5 
L 682.954545 427.5 
L 690.530303 427.5 
L 698.106061 427.5 
L 705.681818 427.5 
L 713.257576 427.5 
L 720.833333 427.5 
L 728.409091 427.5 
L 735.984848 427.5 
L 743.560606 427.5 
L 751.136364 427.5 
L 758.712121 427.5 
L 766.287879 427.5 
L 773.863636 427.5 
L 781.439394 427.5 
L 789.015152 427.5 
L 796.590909 427.5 
L 804.166667 427.5 
L 811.742424 427.5 
L 819.318182 427.5 
L 826.893939 427.5 
L 834.469697 427.5 
L 842.045455 427.5 
L 849.621212 427.5 
L 857.19697 427.5 
L 864.772727 427.5 
" clip-path="url(#pd60bad3700)" style="fill: none; stroke: #55a868; stroke-width: 1.75; stroke-linecap: round"/>
   </g>
   <g id="line2d_24">
    <path d="M 160.227273 422.527202 
L 167.80303 422.427746 
L 175.378788 422.326301 
L 182.954545 422.222827 
L 190.530303 422.117283 
L 198.106061 422.009629 
L 205.681818 421.899821 
L 213.257576 421.787818 
L 220.833333 421.673574 
L 228.409091 421.557046 
L 235.984848 421.438187 
L 243.560606 421.31695 
L 251.136364 421.193289 
L 258.712121 421.067155 
L 266.287879 420.938498 
L 273.863636 420.807268 
L 281.439394 420.673414 
L 289.015152 420.536882 
L 296.590909 420.397619 
L 304.166667 420.255572 
L 311.742424 420.110683 
L 319.318182 419.962897 
L 326.893939 419.812155 
L 334.469697 419.658398 
L 342.045455 419.501566 
L 349.621212 419.341597 
L 357.19697 419.178429 
L 364.772727 419.011998 
L 372.348485 418.842238 
L 379.924242 418.669082 
L 387.5 418.492464 
L 395.075758 418.312313 
L 402.651515 418.12856 
L 410.227273 417.941131 
L 417.80303 417.749953 
L 425.378788 417.554953 
L 432.954545 417.356052 
L 440.530303 417.153173 
L 448.106061 416.946236 
L 455.681818 416.735161 
L 463.257576 416.519864 
L 470.833333 416.300261 
L 478.409091 416.076267 
L 485.984848 415.847792 
L 493.560606 415.614748 
L 501.136364 415.377043 
L 508.712121 415.134584 
L 516.287879 414.887275 
L 523.863636 414.635021 
L 531.439394 414.377721 
L 539.015152 414.115276 
L 546.590909 413.847581 
L 554.166667 413.574533 
L 561.742424 413.296023 
L 569.318182 413.011944 
L 576.893939 412.722183 
L 584.469697 412.426626 
L 592.045455 412.125159 
L 599.621212 411.817662 
L 607.19697 411.504015 
L 614.772727 411.184096 
L 622.348485 410.857777 
L 629.924242 410.524933 
L 637.5 410.185432 
L 645.075758 409.83914 
L 652.651515 409.485923 
L 660.227273 409.125642 
L 667.80303 408.758154 
L 675.378788 408.383317 
L 682.954545 408.000984 
L 690.530303 407.611004 
L 698.106061 407.213224 
L 705.681818 406.807488 
L 713.257576 406.393638 
L 720.833333 405.971511 
L 728.409091 405.540941 
L 735.984848 405.10176 
L 743.560606 404.653795 
L 751.136364 404.196871 
L 758.712121 403.730808 
L 766.287879 403.255424 
L 773.863636 402.770533 
L 781.439394 402.275943 
L 789.015152 401.771462 
L 796.590909 401.256892 
L 804.166667 400.732029 
L 811.742424 400.19667 
L 819.318182 399.650603 
L 826.893939 399.093615 
L 834.469697 398.525488 
L 842.045455 397.945997 
L 849.621212 397.354917 
L 857.19697 396.752016 
L 864.772727 396.137056 
" clip-path="url(#pd60bad3700)" style="fill: none; stroke: #c44e52; stroke-width: 1.75; stroke-linecap: round"/>
   </g>
   <g id="line2d_25">
    <path d="M 160.227273 427.5 
L 167.80303 427.5 
L 175.378788 427.5 
L 182.954545 427.5 
L 190.530303 427.5 
L 198.106061 427.5 
L 205.681818 427.5 
L 213.257576 427.5 
L 220.833333 427.5 
L 228.409091 427.5 
L 235.984848 427.5 
L 243.560606 427.5 
L 251.136364 427.5 
L 258.712121 417.603316 
L 266.287879 417.405382 
L 273.863636 417.203489 
L 281.439394 416.997559 
L 289.015152 416.78751 
L 296.590909 416.573261 
L 304.166667 416.354726 
L 311.742424 416.13182 
L 319.318182 415.904457 
L 326.893939 415.672546 
L 334.469697 415.435997 
L 342.045455 415.194717 
L 349.621212 414.948611 
L 357.19697 414.697583 
L 364.772727 414.441535 
L 372.348485 414.180366 
L 379.924242 413.913973 
L 387.5 413.642252 
L 395.075758 413.365098 
L 402.651515 413.082399 
L 410.227273 412.794047 
L 417.80303 412.499928 
L 425.378788 412.199927 
L 432.954545 411.893926 
L 440.530303 411.581804 
L 448.106061 411.26344 
L 455.681818 410.938709 
L 463.257576 410.607483 
L 470.833333 410.269633 
L 478.409091 409.925025 
L 485.984848 409.573526 
L 493.560606 409.214996 
L 501.136364 408.849296 
L 508.712121 408.476282 
L 516.287879 408.095808 
L 523.863636 407.707724 
L 531.439394 407.311879 
L 539.015152 406.908116 
L 546.590909 406.496279 
L 554.166667 406.076204 
L 561.742424 405.647728 
L 569.318182 405.210683 
L 576.893939 404.764896 
L 584.469697 404.310194 
L 592.045455 403.846398 
L 599.621212 403.373326 
L 607.19697 402.890793 
L 614.772727 402.398609 
L 622.348485 401.896581 
L 629.924242 401.384512 
L 637.5 400.862203 
L 645.075758 400.329447 
L 652.651515 399.786036 
L 660.227273 399.231756 
L 667.80303 398.666391 
L 675.378788 398.089719 
L 682.954545 397.501514 
L 690.530303 396.901544 
L 698.106061 396.289575 
L 705.681818 395.665366 
L 713.257576 395.028674 
L 720.833333 394.379247 
L 728.409091 393.716832 
L 735.984848 393.041169 
L 743.560606 392.351992 
L 751.136364 391.649032 
L 758.712121 390.932012 
L 766.287879 390.200653 
L 773.863636 389.454666 
L 781.439394 388.693759 
L 789.015152 387.917634 
L 796.590909 387.125987 
L 804.166667 386.318507 
L 811.742424 385.494877 
L 819.318182 384.654774 
L 826.893939 383.79787 
L 834.469697 382.923827 
L 842.045455 382.032304 
L 849.621212 381.12295 
L 857.19697 380.195409 
L 864.772727 379.249317 
" clip-path="url(#pd60bad3700)" style="fill: none; stroke: #8172b2; stroke-width: 1.75; stroke-linecap: round"/>
   </g>
   <g id="line2d_26">
    <path d="M 160.227273 427.5 
L 167.80303 427.5 
L 175.378788 427.5 
L 182.954545 427.5 
L 190.530303 427.5 
L 198.106061 427.5 
L 205.681818 427.5 
L 213.257576 427.5 
L 220.833333 427.5 
L 228.409091 427.5 
L 235.984848 427.5 
L 243.560606 427.5 
L 251.136364 427.5 
L 258.712121 303.791444 
L 266.287879 427.5 
L 273.863636 427.5 
L 281.439394 427.5 
L 289.015152 427.5 
L 296.590909 427.5 
L 304.166667 427.5 
L 311.742424 427.5 
L 319.318182 427.5 
L 326.893939 427.5 
L 334.469697 427.5 
L 342.045455 427.5 
L 349.621212 427.5 
L 357.19697 427.5 
L 364.772727 427.5 
L 372.348485 427.5 
L 379.924242 427.5 
L 387.5 427.5 
L 395.075758 427.5 
L 402.651515 427.5 
L 410.227273 427.5 
L 417.80303 427.5 
L 425.378788 427.5 
L 432.954545 427.5 
L 440.530303 427.5 
L 448.106061 427.5 
L 455.681818 427.5 
L 463.257576 427.5 
L 470.833333 427.5 
L 478.409091 427.5 
L 485.984848 427.5 
L 493.560606 427.5 
L 501.136364 427.5 
L 508.712121 427.5 
L 516.287879 427.5 
L 523.863636 427.5 
L 531.439394 427.5 
L 539.015152 427.5 
L 546.590909 427.5 
L 554.166667 427.5 
L 561.742424 427.5 
L 569.318182 427.5 
L 576.893939 427.5 
L 584.469697 427.5 
L 592.045455 427.5 
L 599.621212 427.5 
L 607.19697 427.5 
L 614.772727 427.5 
L 622.348485 427.5 
L 629.924242 427.5 
L 637.5 427.5 
L 645.075758 427.5 
L 652.651515 427.5 
L 660.227273 427.5 
L 667.80303 427.5 
L 675.378788 427.5 
L 682.954545 427.5 
L 690.530303 427.5 
L 698.106061 427.5 
L 705.681818 427.5 
L 713.257576 427.5 
L 720.833333 427.5 
L 728.409091 427.5 
L 735.984848 427.5 
L 743.560606 427.5 
L 751.136364 427.5 
L 758.712121 427.5 
L 766.287879 427.5 
L 773.863636 427.5 
L 781.439394 427.5 
L 789.015152 427.5 
L 796.590909 427.5 
L 804.166667 427.5 
L 811.742424 427.5 
L 819.318182 427.5 
L 826.893939 427.5 
L 834.469697 427.5 
L 842.045455 427.5 
L 849.621212 427.5 
L 857.19697 427.5 
L 864.772727 427.5 
" clip-path="url(#pd60bad3700)" style="fill: none; stroke: #ccb974; stroke-width: 1.75; stroke-linecap: round"/>
   </g>
   <g id="line2d_27">
    <path d="M 160.227273 427.5 
L 167.80303 427.5 
L 175.378788 427.5 
L 182.954545 427.5 
L 190.530303 427.5 
L 198.106061 427.5 
L 205.681818 427.5 
L 213.257576 427.5 
L 220.833333 427.5 
L 228.409091 427.5 
L 235.984848 427.5 
L 243.560606 427.5 
L 251.136364 427.5 
L 258.712121 343.378182 
L 266.287879 427.5 
L 273.863636 427.5 
L 281.439394 427.5 
L 289.015152 427.5 
L 296.590909 427.5 
L 304.166667 427.5 
L 311.742424 427.5 
L 319.318182 427.5 
L 326.893939 427.5 
L 334.469697 427.5 
L 342.045455 427.5 
L 349.621212 427.5 
L 357.19697 427.5 
L 364.772727 427.5 
L 372.348485 427.5 
L 379.924242 427.5 
L 387.5 427.5 
L 395.075758 427.5 
L 402.651515 427.5 
L 410.227273 427.5 
L 417.80303 427.5 
L 425.378788 427.5 
L 432.954545 427.5 
L 440.530303 427.5 
L 448.106061 427.5 
L 455.681818 427.5 
L 463.257576 427.5 
L 470.833333 427.5 
L 478.409091 427.5 
L 485.984848 427.5 
L 493.560606 427.5 
L 501.136364 427.5 
L 508.712121 427.5 
L 516.287879 427.5 
L 523.863636 427.5 
L 531.439394 427.5 
L 539.015152 427.5 
L 546.590909 427.5 
L 554.166667 427.5 
L 561.742424 427.5 
L 569.318182 427.5 
L 576.893939 427.5 
L 584.469697 427.5 
L 592.045455 427.5 
L 599.621212 427.5 
L 607.19697 427.5 
L 614.772727 427.5 
L 622.348485 427.5 
L 629.924242 427.5 
L 637.5 427.5 
L 645.075758 427.5 
L 652.651515 427.5 
L 660.227273 427.5 
L 667.80303 427.5 
L 675.378788 427.5 
L 682.954545 427.5 
L 690.530303 427.5 
L 698.106061 427.5 
L 705.681818 427.5 
L 713.257576 427.5 
L 720.833333 427.5 
L 728.409091 427.5 
L 735.984848 427.5 
L 743.560606 427.5 
L 751.136364 427.5 
L 758.712121 427.5 
L 766.287879 427.5 
L 773.863636 427.5 
L 781.439394 427.5 
L 789.015152 427.5 
L 796.590909 427.5 
L 804.166667 427.5 
L 811.742424 427.5 
L 819.318182 427.5 
L 826.893939 427.5 
L 834.469697 427.5 
L 842.045455 427.5 
L 849.621212 427.5 
L 857.19697 427.5 
L 864.772727 427.5 
" clip-path="url(#pd60bad3700)" style="fill: none; stroke: #64b5cd; stroke-width: 1.75; stroke-linecap: round"/>
   </g>
   <g id="patch_3">
    <path d="M 125 445 
L 125 60 
" style="fill: none"/>
   </g>
   <g id="patch_4">
    <path d="M 900 445 
L 900 60 
" style="fill: none"/>
   </g>
   <g id="patch_5">
    <path d="M 125 445 
L 900 445 
" style="fill: none"/>
   </g>
   <g id="patch_6">
    <path d="M 125 60 
L 900 60 
" style="fill: none"/>
   </g>
   <g id="text_14">
    <!-- Cash Flow Forecast -->
    <g style="fill: #262626" transform="translate(459.153437 54) scale(0.12 -0.12)">
     <defs>
      <path id="ArialMT-46" d="M 525 0 
L 525 4581 
L 3616 4581 
L 3616 4041 
L 1131 4041 
L 1131 2622 
L 3281 2622 
L 3281 2081 
L 1131 2081 
L 1131 0 
L 525 0 
z
" transform="scale(0.015625)"/>
      <path id="ArialMT-77" d="M 1034 0 
L 19 3319 
L 600 3319 
L 1128 1403 
L 1325 691 
Q 1338 744 1497 1375 
L 2025 3319 
L 2603 3319 
L 3100 1394 
L 3266 759 
L 3456 1400 
L 4025 3319 
L 4572 3319 
L 3534 0 
L 2950 0 
L 2422 1988 
L 2294 2553 
L 1622 0 
L 1034 0 
z
" transform="scale(0.015625)"/>
      <path id="ArialMT-63" d="M 2588 1216 
L 3141 1144 
Q 3050 572 2676 248 
Q 2303 -75 1759 -75 
Q 1078 -75 664 370 
Q 250 816 250 1647 
Q 250 2184 428 2587 
Q 606 2991 970 3192 
Q 1334 3394 1763 3394 
Q 2303 3394 2647 3120 
Q 2991 2847 3088 2344 
L 2541 2259 
Q 2463 2594 2264 2762 
Q 2066 2931 1784 2931 
Q 1359 2931 1093 2626 
Q 828 2322 828 1663 
Q 828 994 1084 691 
Q 1341 388 1753 388 
Q 2084 388 2306 591 
Q 2528 794 2588 1216 
z
" transform="scale(0.015625)"/>
     </defs>
     <use xlink:href="#ArialMT-43"/>
     <use xlink:href="#ArialMT-61" x="72.216797"/>
     <use xlink:href="#ArialMT-73" x="127.832031"/>
     <use xlink:href="#ArialMT-68" x="177.832031"/>
     <use xlink:href="#ArialMT-20" x="233.447266"/>
     <use xlink:href="#ArialMT-46" x="261.230469"/>
     <use xlink:href="#ArialMT-6c" x="322.314453"/>
     <use xlink:href="#ArialMT-6f" x="344.53125"/>
     <use xlink:href="#ArialMT-77" x="400.146484"/>
     <use xlink:href="#ArialMT-20" x="472.363281"/>
     <use xlink:href="#ArialMT-46" x="500.146484"/>
     <use xlink:href="#ArialMT-6f" x="561.230469"/>
     <use xlink:href="#ArialMT-72" x="616.845703"/>
     <use xlink:href="#ArialMT-65" x="650.146484"/>
     <use xlink:href="#ArialMT-63" x="705.761719"/>
     <use xlink:href="#ArialMT-61" x="755.761719"/>
     <use xlink:href="#ArialMT-73" x="811.376953"/>
     <use xlink:href="#ArialMT-74" x="861.376953"/>
    </g>
   </g>
  </g>
 </g>
 <defs>
  <clipPath id="pd60bad3700">
   <rect x="125" y="60" width="775" height="385"/>
  </clipPath>
 </defs>
</svg>
