<?xml version="1.0" encoding="utf-8" standalone="no"?>
<!DOCTYPE svg PUBLIC "-//W3C//DTD SVG 1.1//EN"
  "http://www.w3.org/Graphics/SVG/1.1/DTD/svg11.dtd">
<svg xmlns:xlink="http://www.w3.org/1999/xlink" width="460.8pt" height="345.6pt" viewBox="0 0 460.8 345.6" xmlns="http://www.w3.org/2000/svg" version="1.1">
 <metadata>
  <rdf:RDF xmlns:dc="http://purl.org/dc/elements/1.1/" xmlns:cc="http://creativecommons.org/ns#" xmlns:rdf="http://www.w3.org/1999/02/22-rdf-syntax-ns#">
   <cc:Work>
    <dc:type rdf:resource="http://purl.org/dc/dcmitype/StillImage"/>
    <dc:date>2023-02-04T16:20:22.333784</dc:date>
    <dc:format>image/svg+xml</dc:format>
    <dc:creator>
     <cc:Agent>
      <dc:title>Matplotlib v3.6.3, https://matplotlib.org/</dc:title>
     </cc:Agent>
    </dc:creator>
   </cc:Work>
  </rdf:RDF>
 </metadata>
 <defs>
  <style type="text/css">*{stroke-linejoin: round; stroke-linecap: butt}</style>
 </defs>
 <g id="figure_1">
  <g id="patch_1">
   <path d="M 0 345.6 
L 460.8 345.6 
L 460.8 0 
L 0 0 
z
" style="fill: #ffffff"/>
  </g>
  <g id="axes_1">
   <g id="patch_2">
    <path d="M 57.6 307.584 
L 414.72 307.584 
L 414.72 41.472 
L 57.6 41.472 
z
" style="fill: #ffffff"/>
   </g>
   <g id="matplotlib.axis_1">
    <g id="xtick_1">
     <g id="line2d_1">
      <defs>
       <path id="md75bef9bbd" d="M 0 0 
L 0 3.5 
" style="stroke: #000000; stroke-width: 0.8"/>
      </defs>
      <g>
       <use xlink:href="#md75bef9bbd" x="87.796364" y="307.584" style="stroke: #000000; stroke-width: 0.8"/>
      </g>
     </g>
     <g id="text_1">
      <!-- 60 -->
      <g transform="translate(81.433864 322.182437) scale(0.1 -0.1)">
       <defs>
        <path id="DejaVuSans-36" d="M 2113 2584 
Q 1688 2584 1439 2293 
Q 1191 2003 1191 1497 
Q 1191 994 1439 701 
Q 1688 409 2113 409 
Q 2538 409 2786 701 
Q 3034 994 3034 1497 
Q 3034 2003 2786 2293 
Q 2538 2584 2113 2584 
z
M 3366 4563 
L 3366 3988 
Q 3128 4100 2886 4159 
Q 2644 4219 2406 4219 
Q 1781 4219 1451 3797 
Q 1122 3375 1075 2522 
Q 1259 2794 1537 2939 
Q 1816 3084 2150 3084 
Q 2853 3084 3261 2657 
Q 3669 2231 3669 1497 
Q 3669 778 3244 343 
Q 2819 -91 2113 -91 
Q 1303 -91 875 529 
Q 447 1150 447 2328 
Q 447 3434 972 4092 
Q 1497 4750 2381 4750 
Q 2619 4750 2861 4703 
Q 3103 4656 3366 4563 
z
" transform="scale(0.015625)"/>
        <path id="DejaVuSans-30" d="M 2034 4250 
Q 1547 4250 1301 3770 
Q 1056 3291 1056 2328 
Q 1056 1369 1301 889 
Q 1547 409 2034 409 
Q 2525 409 2770 889 
Q 3016 1369 3016 2328 
Q 3016 3291 2770 3770 
Q 2525 4250 2034 4250 
z
M 2034 4750 
Q 2819 4750 3233 4129 
Q 3647 3509 3647 2328 
Q 3647 1150 3233 529 
Q 2819 -91 2034 -91 
Q 1250 -91 836 529 
Q 422 1150 422 2328 
Q 422 3509 836 4129 
Q 1250 4750 2034 4750 
z
" transform="scale(0.015625)"/>
       </defs>
       <use xlink:href="#DejaVuSans-36"/>
       <use xlink:href="#DejaVuSans-30" x="63.623047"/>
      </g>
     </g>
    </g>
    <g id="xtick_2">
     <g id="line2d_2">
      <g>
       <use xlink:href="#md75bef9bbd" x="157.614545" y="307.584" style="stroke: #000000; stroke-width: 0.8"/>
      </g>
     </g>
     <g id="text_2">
      <!-- 80 -->
      <g transform="translate(151.252045 322.182437) scale(0.1 -0.1)">
       <defs>
        <path id="DejaVuSans-38" d="M 2034 2216 
Q 1584 2216 1326 1975 
Q 1069 1734 1069 1313 
Q 1069 891 1326 650 
Q 1584 409 2034 409 
Q 2484 409 2743 651 
Q 3003 894 3003 1313 
Q 3003 1734 2745 1975 
Q 2488 2216 2034 2216 
z
M 1403 2484 
Q 997 2584 770 2862 
Q 544 3141 544 3541 
Q 544 4100 942 4425 
Q 1341 4750 2034 4750 
Q 2731 4750 3128 4425 
Q 3525 4100 3525 3541 
Q 3525 3141 3298 2862 
Q 3072 2584 2669 2484 
Q 3125 2378 3379 2068 
Q 3634 1759 3634 1313 
Q 3634 634 3220 271 
Q 2806 -91 2034 -91 
Q 1263 -91 848 271 
Q 434 634 434 1313 
Q 434 1759 690 2068 
Q 947 2378 1403 2484 
z
M 1172 3481 
Q 1172 3119 1398 2916 
Q 1625 2713 2034 2713 
Q 2441 2713 2670 2916 
Q 2900 3119 2900 3481 
Q 2900 3844 2670 4047 
Q 2441 4250 2034 4250 
Q 1625 4250 1398 4047 
Q 1172 3844 1172 3481 
z
" transform="scale(0.015625)"/>
       </defs>
       <use xlink:href="#DejaVuSans-38"/>
       <use xlink:href="#DejaVuSans-30" x="63.623047"/>
      </g>
     </g>
    </g>
    <g id="xtick_3">
     <g id="line2d_3">
      <g>
       <use xlink:href="#md75bef9bbd" x="227.432727" y="307.584" style="stroke: #000000; stroke-width: 0.8"/>
      </g>
     </g>
     <g id="text_3">
      <!-- 100 -->
      <g transform="translate(217.888977 322.182437) scale(0.1 -0.1)">
       <defs>
        <path id="DejaVuSans-31" d="M 794 531 
L 1825 531 
L 1825 4091 
L 703 3866 
L 703 4441 
L 1819 4666 
L 2450 4666 
L 2450 531 
L 3481 531 
L 3481 0 
L 794 0 
L 794 531 
z
" transform="scale(0.015625)"/>
       </defs>
       <use xlink:href="#DejaVuSans-31"/>
       <use xlink:href="#DejaVuSans-30" x="63.623047"/>
       <use xlink:href="#DejaVuSans-30" x="127.246094"/>
      </g>
     </g>
    </g>
    <g id="xtick_4">
     <g id="line2d_4">
      <g>
       <use xlink:href="#md75bef9bbd" x="297.250909" y="307.584" style="stroke: #000000; stroke-width: 0.8"/>
      </g>
     </g>
     <g id="text_4">
      <!-- 120 -->
      <g transform="translate(287.707159 322.182437) scale(0.1 -0.1)">
       <defs>
        <path id="DejaVuSans-32" d="M 1228 531 
L 3431 531 
L 3431 0 
L 469 0 
L 469 531 
Q 828 903 1448 1529 
Q 2069 2156 2228 2338 
Q 2531 2678 2651 2914 
Q 2772 3150 2772 3378 
Q 2772 3750 2511 3984 
Q 2250 4219 1831 4219 
Q 1534 4219 1204 4116 
Q 875 4013 500 3803 
L 500 4441 
Q 881 4594 1212 4672 
Q 1544 4750 1819 4750 
Q 2544 4750 2975 4387 
Q 3406 4025 3406 3419 
Q 3406 3131 3298 2873 
Q 3191 2616 2906 2266 
Q 2828 2175 2409 1742 
Q 1991 1309 1228 531 
z
" transform="scale(0.015625)"/>
       </defs>
       <use xlink:href="#DejaVuSans-31"/>
       <use xlink:href="#DejaVuSans-32" x="63.623047"/>
       <use xlink:href="#DejaVuSans-30" x="127.246094"/>
      </g>
     </g>
    </g>
    <g id="xtick_5">
     <g id="line2d_5">
      <g>
       <use xlink:href="#md75bef9bbd" x="367.069091" y="307.584" style="stroke: #000000; stroke-width: 0.8"/>
      </g>
     </g>
     <g id="text_5">
      <!-- 140 -->
      <g transform="translate(357.525341 322.182437) scale(0.1 -0.1)">
       <defs>
        <path id="DejaVuSans-34" d="M 2419 4116 
L 825 1625 
L 2419 1625 
L 2419 4116 
z
M 2253 4666 
L 3047 4666 
L 3047 1625 
L 3713 1625 
L 3713 1100 
L 3047 1100 
L 3047 0 
L 2419 0 
L 2419 1100 
L 313 1100 
L 313 1709 
L 2253 4666 
z
" transform="scale(0.015625)"/>
       </defs>
       <use xlink:href="#DejaVuSans-31"/>
       <use xlink:href="#DejaVuSans-34" x="63.623047"/>
       <use xlink:href="#DejaVuSans-30" x="127.246094"/>
      </g>
     </g>
    </g>
    <g id="text_6">
     <!-- Time -->
     <g transform="translate(223.926406 335.860562) scale(0.1 -0.1)">
      <defs>
       <path id="DejaVuSans-54" d="M -19 4666 
L 3928 4666 
L 3928 4134 
L 2272 4134 
L 2272 0 
L 1638 0 
L 1638 4134 
L -19 4134 
L -19 4666 
z
" transform="scale(0.015625)"/>
       <path id="DejaVuSans-69" d="M 603 3500 
L 1178 3500 
L 1178 0 
L 603 0 
L 603 3500 
z
M 603 4863 
L 1178 4863 
L 1178 4134 
L 603 4134 
L 603 4863 
z
" transform="scale(0.015625)"/>
       <path id="DejaVuSans-6d" d="M 3328 2828 
Q 3544 3216 3844 3400 
Q 4144 3584 4550 3584 
Q 5097 3584 5394 3201 
Q 5691 2819 5691 2113 
L 5691 0 
L 5113 0 
L 5113 2094 
Q 5113 2597 4934 2840 
Q 4756 3084 4391 3084 
Q 3944 3084 3684 2787 
Q 3425 2491 3425 1978 
L 3425 0 
L 2847 0 
L 2847 2094 
Q 2847 2600 2669 2842 
Q 2491 3084 2119 3084 
Q 1678 3084 1418 2786 
Q 1159 2488 1159 1978 
L 1159 0 
L 581 0 
L 581 3500 
L 1159 3500 
L 1159 2956 
Q 1356 3278 1631 3431 
Q 1906 3584 2284 3584 
Q 2666 3584 2933 3390 
Q 3200 3197 3328 2828 
z
" transform="scale(0.015625)"/>
       <path id="DejaVuSans-65" d="M 3597 1894 
L 3597 1613 
L 953 1613 
Q 991 1019 1311 708 
Q 1631 397 2203 397 
Q 2534 397 2845 478 
Q 3156 559 3463 722 
L 3463 178 
Q 3153 47 2828 -22 
Q 2503 -91 2169 -91 
Q 1331 -91 842 396 
Q 353 884 353 1716 
Q 353 2575 817 3079 
Q 1281 3584 2069 3584 
Q 2775 3584 3186 3129 
Q 3597 2675 3597 1894 
z
M 3022 2063 
Q 3016 2534 2758 2815 
Q 2500 3097 2075 3097 
Q 1594 3097 1305 2825 
Q 1016 2553 972 2059 
L 3022 2063 
z
" transform="scale(0.015625)"/>
      </defs>
      <use xlink:href="#DejaVuSans-54"/>
      <use xlink:href="#DejaVuSans-69" x="57.958984"/>
      <use xlink:href="#DejaVuSans-6d" x="85.742188"/>
      <use xlink:href="#DejaVuSans-65" x="183.154297"/>
     </g>
    </g>
   </g>
   <g id="matplotlib.axis_2">
    <g id="ytick_1">
     <g id="line2d_6">
      <defs>
       <path id="mb5ab3e44fb" d="M 0 0 
L -3.5 0 
" style="stroke: #000000; stroke-width: 0.8"/>
      </defs>
      <g>
       <use xlink:href="#mb5ab3e44fb" x="57.6" y="295.488" style="stroke: #000000; stroke-width: 0.8"/>
      </g>
     </g>
     <g id="text_7">
      <!-- 0 -->
      <g transform="translate(44.2375 299.287219) scale(0.1 -0.1)">
       <use xlink:href="#DejaVuSans-30"/>
      </g>
     </g>
    </g>
    <g id="ytick_2">
     <g id="line2d_7">
      <g>
       <use xlink:href="#mb5ab3e44fb" x="57.6" y="242.608027" style="stroke: #000000; stroke-width: 0.8"/>
      </g>
     </g>
     <g id="text_8">
      <!-- 1 -->
      <g transform="translate(44.2375 246.407246) scale(0.1 -0.1)">
       <use xlink:href="#DejaVuSans-31"/>
      </g>
     </g>
    </g>
    <g id="ytick_3">
     <g id="line2d_8">
      <g>
       <use xlink:href="#mb5ab3e44fb" x="57.6" y="189.728055" style="stroke: #000000; stroke-width: 0.8"/>
      </g>
     </g>
     <g id="text_9">
      <!-- 2 -->
      <g transform="translate(44.2375 193.527274) scale(0.1 -0.1)">
       <use xlink:href="#DejaVuSans-32"/>
      </g>
     </g>
    </g>
    <g id="ytick_4">
     <g id="line2d_9">
      <g>
       <use xlink:href="#mb5ab3e44fb" x="57.6" y="136.848082" style="stroke: #000000; stroke-width: 0.8"/>
      </g>
     </g>
     <g id="text_10">
      <!-- 3 -->
      <g transform="translate(44.2375 140.647301) scale(0.1 -0.1)">
       <defs>
        <path id="DejaVuSans-33" d="M 2597 2516 
Q 3050 2419 3304 2112 
Q 3559 1806 3559 1356 
Q 3559 666 3084 287 
Q 2609 -91 1734 -91 
Q 1441 -91 1130 -33 
Q 819 25 488 141 
L 488 750 
Q 750 597 1062 519 
Q 1375 441 1716 441 
Q 2309 441 2620 675 
Q 2931 909 2931 1356 
Q 2931 1769 2642 2001 
Q 2353 2234 1838 2234 
L 1294 2234 
L 1294 2753 
L 1863 2753 
Q 2328 2753 2575 2939 
Q 2822 3125 2822 3475 
Q 2822 3834 2567 4026 
Q 2313 4219 1838 4219 
Q 1578 4219 1281 4162 
Q 984 4106 628 3988 
L 628 4550 
Q 988 4650 1302 4700 
Q 1616 4750 1894 4750 
Q 2613 4750 3031 4423 
Q 3450 4097 3450 3541 
Q 3450 3153 3228 2886 
Q 3006 2619 2597 2516 
z
" transform="scale(0.015625)"/>
       </defs>
       <use xlink:href="#DejaVuSans-33"/>
      </g>
     </g>
    </g>
    <g id="ytick_5">
     <g id="line2d_10">
      <g>
       <use xlink:href="#mb5ab3e44fb" x="57.6" y="83.96811" style="stroke: #000000; stroke-width: 0.8"/>
      </g>
     </g>
     <g id="text_11">
      <!-- 4 -->
      <g transform="translate(44.2375 87.767329) scale(0.1 -0.1)">
       <use xlink:href="#DejaVuSans-34"/>
      </g>
     </g>
    </g>
    <g id="text_12">
     <!-- $ -->
     <g transform="translate(38.157812 177.70925) rotate(-90) scale(0.1 -0.1)">
      <defs>
       <path id="DejaVuSans-24" d="M 2163 -941 
L 1850 -941 
L 1847 0 
Q 1519 6 1191 76 
Q 863 147 531 288 
L 531 850 
Q 850 650 1176 548 
Q 1503 447 1850 444 
L 1850 1869 
Q 1159 1981 845 2250 
Q 531 2519 531 2988 
Q 531 3497 872 3790 
Q 1213 4084 1850 4128 
L 1850 4863 
L 2163 4863 
L 2163 4138 
Q 2453 4125 2725 4076 
Q 2997 4028 3256 3944 
L 3256 3397 
Q 2997 3528 2723 3600 
Q 2450 3672 2163 3684 
L 2163 2350 
Q 2872 2241 3206 1959 
Q 3541 1678 3541 1191 
Q 3541 663 3186 358 
Q 2831 53 2163 6 
L 2163 -941 
z
M 1850 2406 
L 1850 3688 
Q 1488 3647 1297 3481 
Q 1106 3316 1106 3041 
Q 1106 2772 1282 2622 
Q 1459 2472 1850 2406 
z
M 2163 1806 
L 2163 453 
Q 2559 506 2761 678 
Q 2963 850 2963 1131 
Q 2963 1406 2770 1568 
Q 2578 1731 2163 1806 
z
" transform="scale(0.015625)"/>
      </defs>
      <use xlink:href="#DejaVuSans-24"/>
     </g>
    </g>
    <g id="text_13">
     <!-- 1e6 -->
     <g transform="translate(57.6 38.472) scale(0.1 -0.1)">
      <use xlink:href="#DejaVuSans-31"/>
      <use xlink:href="#DejaVuSans-65" x="63.623047"/>
      <use xlink:href="#DejaVuSans-36" x="125.146484"/>
     </g>
    </g>
   </g>
   <g id="line2d_11">
    <path d="M 73.832727 216.168041 
L 77.323636 206.255639 
L 80.814545 195.981733 
L 84.305455 185.335893 
L 87.796364 174.307416 
L 91.287273 162.885323 
L 94.778182 151.058346 
L 98.269091 138.81493 
L 101.76 126.143217 
L 105.250909 113.031045 
L 108.741818 106.553855 
L 112.232727 99.89167 
L 115.723636 93.039702 
L 119.214545 85.993046 
L 122.705455 57.822526 
L 126.196364 57.075235 
L 129.687273 56.391548 
L 133.178182 55.774277 
L 136.669091 55.22632 
L 140.16 54.750665 
L 143.650909 54.350391 
L 147.141818 54.028669 
L 150.632727 53.788769 
L 154.123636 53.634056 
L 157.614545 53.568 
L 161.105455 53.594172 
L 164.596364 53.716251 
L 168.087273 53.938026 
L 171.578182 54.263398 
L 175.069091 54.696382 
L 178.56 55.241113 
L 182.050909 55.901849 
L 185.541818 56.682969 
L 189.032727 57.588983 
L 192.523636 58.624531 
L 196.014545 59.794389 
L 199.505455 61.10347 
L 202.996364 62.556829 
L 206.487273 64.159669 
L 209.978182 65.917339 
L 213.469091 67.835344 
L 216.96 69.919344 
L 220.450909 72.175163 
L 223.941818 74.608788 
L 227.432727 77.226378 
L 230.923636 80.034263 
L 234.414545 83.038956 
L 237.905455 86.24715 
L 241.396364 89.665727 
L 244.887273 93.301762 
L 248.378182 97.162527 
L 251.869091 101.255497 
L 255.36 105.588356 
L 258.850909 110.168999 
L 262.341818 115.005542 
L 265.832727 120.106324 
L 269.323636 125.479915 
L 272.814545 131.135119 
L 276.305455 137.080984 
L 279.796364 143.326803 
L 283.287273 149.882127 
L 286.778182 156.756763 
L 290.269091 163.96079 
L 293.76 171.504557 
L 297.250909 179.398695 
L 300.741818 187.654124 
L 304.232727 196.282058 
L 307.723636 205.294014 
L 311.214545 235.022389 
L 314.705455 265.963611 
L 318.196364 295.488 
L 321.687273 295.488 
L 325.178182 295.488 
L 328.669091 295.488 
L 332.16 295.488 
L 335.650909 295.488 
L 339.141818 295.488 
L 342.632727 295.488 
L 346.123636 295.488 
L 349.614545 295.488 
L 353.105455 295.488 
L 356.596364 295.488 
L 360.087273 295.488 
L 363.578182 295.488 
L 367.069091 295.488 
L 370.56 295.488 
L 374.050909 295.488 
L 377.541818 295.488 
L 381.032727 295.488 
L 384.523636 295.488 
L 388.014545 295.488 
L 391.505455 295.488 
L 394.996364 295.488 
L 398.487273 295.488 
" clip-path="url(#p142c142221)" style="fill: none; stroke: #0000ff; stroke-width: 1.5; stroke-linecap: square"/>
   </g>
   <g id="line2d_12">
    <path d="M 73.832727 285.969605 
L 77.323636 285.779237 
L 80.814545 285.585062 
L 84.305455 285.387003 
L 87.796364 285.184983 
L 91.287273 284.978923 
L 94.778182 284.768741 
L 98.269091 284.554356 
L 101.76 284.335683 
L 105.250909 282.848708 
L 108.741818 282.595922 
L 112.232727 282.33808 
L 115.723636 282.075082 
L 119.214545 295.488 
L 122.705455 295.488 
L 126.196364 295.488 
L 129.687273 295.488 
L 133.178182 295.488 
L 136.669091 295.488 
L 140.16 295.488 
L 143.650909 295.488 
L 147.141818 295.488 
L 150.632727 295.488 
L 154.123636 295.488 
L 157.614545 295.488 
L 161.105455 295.488 
L 164.596364 295.488 
L 168.087273 295.488 
L 171.578182 295.488 
L 175.069091 295.488 
L 178.56 295.488 
L 182.050909 295.488 
L 185.541818 295.488 
L 189.032727 295.488 
L 192.523636 295.488 
L 196.014545 295.488 
L 199.505455 295.488 
L 202.996364 295.488 
L 206.487273 295.488 
L 209.978182 295.488 
L 213.469091 295.488 
L 216.96 295.488 
L 220.450909 295.488 
L 223.941818 295.488 
L 227.432727 295.488 
L 230.923636 295.488 
L 234.414545 295.488 
L 237.905455 295.488 
L 241.396364 295.488 
L 244.887273 295.488 
L 248.378182 295.488 
L 251.869091 295.488 
L 255.36 295.488 
L 258.850909 295.488 
L 262.341818 295.488 
L 265.832727 295.488 
L 269.323636 295.488 
L 272.814545 295.488 
L 276.305455 295.488 
L 279.796364 295.488 
L 283.287273 295.488 
L 286.778182 295.488 
L 290.269091 295.488 
L 293.76 295.488 
L 297.250909 295.488 
L 300.741818 295.488 
L 304.232727 295.488 
L 307.723636 295.488 
L 311.214545 295.488 
L 314.705455 295.488 
L 318.196364 295.488 
L 321.687273 295.488 
L 325.178182 295.488 
L 328.669091 295.488 
L 332.16 295.488 
L 335.650909 295.488 
L 339.141818 295.488 
L 342.632727 295.488 
L 346.123636 295.488 
L 349.614545 295.488 
L 353.105455 295.488 
L 356.596364 295.488 
L 360.087273 295.488 
L 363.578182 295.488 
L 367.069091 295.488 
L 370.56 295.488 
L 374.050909 295.488 
L 377.541818 295.488 
L 381.032727 295.488 
L 384.523636 295.488 
L 388.014545 295.488 
L 391.505455 295.488 
L 394.996364 295.488 
L 398.487273 295.488 
" clip-path="url(#p142c142221)" style="fill: none; stroke: #1f77b4; stroke-width: 1.5; stroke-linecap: square"/>
   </g>
   <g id="line2d_13">
    <path d="M 73.832727 289.671203 
L 77.323636 289.554867 
L 80.814545 289.436204 
L 84.305455 289.315169 
L 87.796364 289.191712 
L 91.287273 289.065786 
L 94.778182 288.937342 
L 98.269091 288.806329 
L 101.76 288.672695 
L 105.250909 295.488 
L 108.741818 295.488 
L 112.232727 295.488 
L 115.723636 295.488 
L 119.214545 295.488 
L 122.705455 295.488 
L 126.196364 295.488 
L 129.687273 295.488 
L 133.178182 295.488 
L 136.669091 295.488 
L 140.16 295.488 
L 143.650909 295.488 
L 147.141818 295.488 
L 150.632727 295.488 
L 154.123636 295.488 
L 157.614545 295.488 
L 161.105455 295.488 
L 164.596364 295.488 
L 168.087273 295.488 
L 171.578182 295.488 
L 175.069091 295.488 
L 178.56 295.488 
L 182.050909 295.488 
L 185.541818 295.488 
L 189.032727 295.488 
L 192.523636 295.488 
L 196.014545 295.488 
L 199.505455 295.488 
L 202.996364 295.488 
L 206.487273 295.488 
L 209.978182 295.488 
L 213.469091 295.488 
L 216.96 295.488 
L 220.450909 295.488 
L 223.941818 295.488 
L 227.432727 295.488 
L 230.923636 295.488 
L 234.414545 295.488 
L 237.905455 295.488 
L 241.396364 295.488 
L 244.887273 295.488 
L 248.378182 295.488 
L 251.869091 295.488 
L 255.36 295.488 
L 258.850909 295.488 
L 262.341818 295.488 
L 265.832727 295.488 
L 269.323636 295.488 
L 272.814545 295.488 
L 276.305455 295.488 
L 279.796364 295.488 
L 283.287273 295.488 
L 286.778182 295.488 
L 290.269091 295.488 
L 293.76 295.488 
L 297.250909 295.488 
L 300.741818 295.488 
L 304.232727 295.488 
L 307.723636 295.488 
L 311.214545 295.488 
L 314.705455 295.488 
L 318.196364 295.488 
L 321.687273 295.488 
L 325.178182 295.488 
L 328.669091 295.488 
L 332.16 295.488 
L 335.650909 295.488 
L 339.141818 295.488 
L 342.632727 295.488 
L 346.123636 295.488 
L 349.614545 295.488 
L 353.105455 295.488 
L 356.596364 295.488 
L 360.087273 295.488 
L 363.578182 295.488 
L 367.069091 295.488 
L 370.56 295.488 
L 374.050909 295.488 
L 377.541818 295.488 
L 381.032727 295.488 
L 384.523636 295.488 
L 388.014545 295.488 
L 391.505455 295.488 
L 394.996364 295.488 
L 398.487273 295.488 
" clip-path="url(#p142c142221)" style="fill: none; stroke: #ff7f0e; stroke-width: 1.5; stroke-linecap: square"/>
   </g>
   <g id="line2d_14">
    <path d="M 73.832727 292.050802 
L 77.323636 291.982058 
L 80.814545 291.911939 
L 84.305455 291.840418 
L 87.796364 291.767466 
L 91.287273 291.693055 
L 94.778182 291.617157 
L 98.269091 291.53974 
L 101.76 291.460774 
L 105.250909 291.38023 
L 108.741818 291.298075 
L 112.232727 291.214276 
L 115.723636 291.128802 
L 119.214545 291.041618 
L 122.705455 290.95269 
L 126.196364 290.861984 
L 129.687273 290.769463 
L 133.178182 290.675093 
L 136.669091 290.578835 
L 140.16 290.480651 
L 143.650909 290.380504 
L 147.141818 290.278354 
L 150.632727 290.174161 
L 154.123636 290.067885 
L 157.614545 289.959482 
L 161.105455 289.848912 
L 164.596364 289.73613 
L 168.087273 289.621093 
L 171.578182 289.503755 
L 175.069091 289.38407 
L 178.56 289.261991 
L 182.050909 289.137471 
L 185.541818 289.01046 
L 189.032727 288.88091 
L 192.523636 288.748768 
L 196.014545 288.613983 
L 199.505455 288.476503 
L 202.996364 288.336273 
L 206.487273 288.193238 
L 209.978182 288.047343 
L 213.469091 287.89853 
L 216.96 287.746741 
L 220.450909 287.591915 
L 223.941818 287.433994 
L 227.432727 287.272914 
L 230.923636 287.108612 
L 234.414545 286.941024 
L 237.905455 286.770085 
L 241.396364 286.595726 
L 244.887273 286.417881 
L 248.378182 286.236478 
L 251.869091 286.051448 
L 255.36 285.862717 
L 258.850909 285.670211 
L 262.341818 285.473856 
L 265.832727 285.273573 
L 269.323636 285.069284 
L 272.814545 284.86091 
L 276.305455 284.648368 
L 279.796364 284.431575 
L 283.287273 284.210447 
L 286.778182 283.984896 
L 290.269091 283.754834 
L 293.76 283.52017 
L 297.250909 283.280814 
L 300.741818 283.03667 
L 304.232727 282.787643 
L 307.723636 282.533636 
L 311.214545 282.274549 
L 314.705455 282.01028 
L 318.196364 281.740726 
L 321.687273 281.46578 
L 325.178182 281.185336 
L 328.669091 280.899282 
L 332.16 280.607508 
L 335.650909 280.309898 
L 339.141818 280.006336 
L 342.632727 279.696703 
L 346.123636 279.380877 
L 349.614545 279.058735 
L 353.105455 278.730149 
L 356.596364 278.394992 
L 360.087273 278.053132 
L 363.578182 277.704435 
L 367.069091 277.348763 
L 370.56 276.985979 
L 374.050909 276.615938 
L 377.541818 276.238497 
L 381.032727 275.853507 
L 384.523636 275.460817 
L 388.014545 275.060273 
L 391.505455 274.651719 
L 394.996364 274.234993 
L 398.487273 273.809933 
" clip-path="url(#p142c142221)" style="fill: none; stroke: #2ca02c; stroke-width: 1.5; stroke-linecap: square"/>
   </g>
   <g id="line2d_15">
    <path d="M 73.832727 295.488 
L 77.323636 295.488 
L 80.814545 295.488 
L 84.305455 295.488 
L 87.796364 295.488 
L 91.287273 295.488 
L 94.778182 295.488 
L 98.269091 295.488 
L 101.76 295.488 
L 105.250909 295.488 
L 108.741818 295.488 
L 112.232727 295.488 
L 115.723636 295.488 
L 119.214545 288.647412 
L 122.705455 288.5106 
L 126.196364 288.371052 
L 129.687273 288.228713 
L 133.178182 288.083527 
L 136.669091 287.935438 
L 140.16 287.784387 
L 143.650909 287.630314 
L 147.141818 287.473161 
L 150.632727 287.312864 
L 154.123636 287.149361 
L 157.614545 286.982588 
L 161.105455 286.81248 
L 164.596364 286.63897 
L 168.087273 286.461989 
L 171.578182 286.281469 
L 175.069091 286.097338 
L 178.56 285.909525 
L 182.050909 285.717955 
L 185.541818 285.522555 
L 189.032727 285.323246 
L 192.523636 285.119951 
L 196.014545 284.91259 
L 199.505455 284.701081 
L 202.996364 284.485343 
L 206.487273 284.26529 
L 209.978182 284.040836 
L 213.469091 283.811892 
L 216.96 283.57837 
L 220.450909 283.340178 
L 223.941818 283.097221 
L 227.432727 282.849406 
L 230.923636 282.596634 
L 234.414545 282.338806 
L 237.905455 282.075822 
L 241.396364 281.807579 
L 244.887273 281.53397 
L 248.378182 281.25489 
L 251.869091 280.970228 
L 255.36 280.679872 
L 258.850909 280.38371 
L 262.341818 280.081624 
L 265.832727 279.773496 
L 269.323636 279.459206 
L 272.814545 279.13863 
L 276.305455 278.811643 
L 279.796364 278.478116 
L 283.287273 278.137918 
L 286.778182 277.790917 
L 290.269091 277.436975 
L 293.76 277.075954 
L 297.250909 276.707713 
L 300.741818 276.332108 
L 304.232727 275.94899 
L 307.723636 275.55821 
L 311.214545 275.159614 
L 314.705455 274.753046 
L 318.196364 274.338347 
L 321.687273 273.915354 
L 325.178182 273.483901 
L 328.669091 273.043819 
L 332.16 272.594936 
L 335.650909 272.137074 
L 339.141818 271.670056 
L 342.632727 271.193697 
L 346.123636 270.707811 
L 349.614545 270.212207 
L 353.105455 269.706691 
L 356.596364 269.191065 
L 360.087273 268.665126 
L 363.578182 268.128669 
L 367.069091 267.581482 
L 370.56 267.023352 
L 374.050909 266.454059 
L 377.541818 265.87338 
L 381.032727 265.281088 
L 384.523636 264.676949 
L 388.014545 264.060728 
L 391.505455 263.432183 
L 394.996364 262.791067 
L 398.487273 262.137128 
" clip-path="url(#p142c142221)" style="fill: none; stroke: #d62728; stroke-width: 1.5; stroke-linecap: square"/>
   </g>
   <g id="line2d_16">
    <path d="M 73.832727 295.488 
L 77.323636 295.488 
L 80.814545 295.488 
L 84.305455 295.488 
L 87.796364 295.488 
L 91.287273 295.488 
L 94.778182 295.488 
L 98.269091 295.488 
L 101.76 295.488 
L 105.250909 295.488 
L 108.741818 295.488 
L 112.232727 295.488 
L 115.723636 295.488 
L 119.214545 209.980646 
L 122.705455 295.488 
L 126.196364 295.488 
L 129.687273 295.488 
L 133.178182 295.488 
L 136.669091 295.488 
L 140.16 295.488 
L 143.650909 295.488 
L 147.141818 295.488 
L 150.632727 295.488 
L 154.123636 295.488 
L 157.614545 295.488 
L 161.105455 295.488 
L 164.596364 295.488 
L 168.087273 295.488 
L 171.578182 295.488 
L 175.069091 295.488 
L 178.56 295.488 
L 182.050909 295.488 
L 185.541818 295.488 
L 189.032727 295.488 
L 192.523636 295.488 
L 196.014545 295.488 
L 199.505455 295.488 
L 202.996364 295.488 
L 206.487273 295.488 
L 209.978182 295.488 
L 213.469091 295.488 
L 216.96 295.488 
L 220.450909 295.488 
L 223.941818 295.488 
L 227.432727 295.488 
L 230.923636 295.488 
L 234.414545 295.488 
L 237.905455 295.488 
L 241.396364 295.488 
L 244.887273 295.488 
L 248.378182 295.488 
L 251.869091 295.488 
L 255.36 295.488 
L 258.850909 295.488 
L 262.341818 295.488 
L 265.832727 295.488 
L 269.323636 295.488 
L 272.814545 295.488 
L 276.305455 295.488 
L 279.796364 295.488 
L 283.287273 295.488 
L 286.778182 295.488 
L 290.269091 295.488 
L 293.76 295.488 
L 297.250909 295.488 
L 300.741818 295.488 
L 304.232727 295.488 
L 307.723636 295.488 
L 311.214545 295.488 
L 314.705455 295.488 
L 318.196364 295.488 
L 321.687273 295.488 
L 325.178182 295.488 
L 328.669091 295.488 
L 332.16 295.488 
L 335.650909 295.488 
L 339.141818 295.488 
L 342.632727 295.488 
L 346.123636 295.488 
L 349.614545 295.488 
L 353.105455 295.488 
L 356.596364 295.488 
L 360.087273 295.488 
L 363.578182 295.488 
L 367.069091 295.488 
L 370.56 295.488 
L 374.050909 295.488 
L 377.541818 295.488 
L 381.032727 295.488 
L 384.523636 295.488 
L 388.014545 295.488 
L 391.505455 295.488 
L 394.996364 295.488 
L 398.487273 295.488 
" clip-path="url(#p142c142221)" style="fill: none; stroke: #9467bd; stroke-width: 1.5; stroke-linecap: square"/>
   </g>
   <g id="line2d_17">
    <path d="M 73.832727 295.488 
L 77.323636 295.488 
L 80.814545 295.488 
L 84.305455 295.488 
L 87.796364 295.488 
L 91.287273 295.488 
L 94.778182 295.488 
L 98.269091 295.488 
L 101.76 295.488 
L 105.250909 295.488 
L 108.741818 295.488 
L 112.232727 295.488 
L 115.723636 295.488 
L 119.214545 237.342999 
L 122.705455 295.488 
L 126.196364 295.488 
L 129.687273 295.488 
L 133.178182 295.488 
L 136.669091 295.488 
L 140.16 295.488 
L 143.650909 295.488 
L 147.141818 295.488 
L 150.632727 295.488 
L 154.123636 295.488 
L 157.614545 295.488 
L 161.105455 295.488 
L 164.596364 295.488 
L 168.087273 295.488 
L 171.578182 295.488 
L 175.069091 295.488 
L 178.56 295.488 
L 182.050909 295.488 
L 185.541818 295.488 
L 189.032727 295.488 
L 192.523636 295.488 
L 196.014545 295.488 
L 199.505455 295.488 
L 202.996364 295.488 
L 206.487273 295.488 
L 209.978182 295.488 
L 213.469091 295.488 
L 216.96 295.488 
L 220.450909 295.488 
L 223.941818 295.488 
L 227.432727 295.488 
L 230.923636 295.488 
L 234.414545 295.488 
L 237.905455 295.488 
L 241.396364 295.488 
L 244.887273 295.488 
L 248.378182 295.488 
L 251.869091 295.488 
L 255.36 295.488 
L 258.850909 295.488 
L 262.341818 295.488 
L 265.832727 295.488 
L 269.323636 295.488 
L 272.814545 295.488 
L 276.305455 295.488 
L 279.796364 295.488 
L 283.287273 295.488 
L 286.778182 295.488 
L 290.269091 295.488 
L 293.76 295.488 
L 297.250909 295.488 
L 300.741818 295.488 
L 304.232727 295.488 
L 307.723636 295.488 
L 311.214545 295.488 
L 314.705455 295.488 
L 318.196364 295.488 
L 321.687273 295.488 
L 325.178182 295.488 
L 328.669091 295.488 
L 332.16 295.488 
L 335.650909 295.488 
L 339.141818 295.488 
L 342.632727 295.488 
L 346.123636 295.488 
L 349.614545 295.488 
L 353.105455 295.488 
L 356.596364 295.488 
L 360.087273 295.488 
L 363.578182 295.488 
L 367.069091 295.488 
L 370.56 295.488 
L 374.050909 295.488 
L 377.541818 295.488 
L 381.032727 295.488 
L 384.523636 295.488 
L 388.014545 295.488 
L 391.505455 295.488 
L 394.996364 295.488 
L 398.487273 295.488 
" clip-path="url(#p142c142221)" style="fill: none; stroke: #8c564b; stroke-width: 1.5; stroke-linecap: square"/>
   </g>
   <g id="line2d_18">
    <path d="M 73.832727 216.168041 
L 77.323636 206.255639 
L 80.814545 195.981733 
L 84.305455 185.335893 
L 87.796364 174.307416 
L 91.287273 162.885323 
L 94.778182 151.058346 
L 98.269091 138.81493 
L 101.76 126.143217 
L 105.250909 113.031045 
L 108.741818 106.553855 
L 112.232727 99.89167 
L 115.723636 93.039702 
L 119.214545 85.993046 
L 122.705455 57.822526 
L 126.196364 57.075235 
L 129.687273 56.391548 
L 133.178182 55.774277 
L 136.669091 55.22632 
L 140.16 54.750665 
L 143.650909 54.350391 
L 147.141818 54.028669 
L 150.632727 53.788769 
L 154.123636 53.634056 
L 157.614545 53.568 
L 161.105455 53.594172 
L 164.596364 53.716251 
L 168.087273 53.938026 
L 171.578182 54.263398 
L 175.069091 54.696382 
L 178.56 55.241113 
L 182.050909 55.901849 
L 185.541818 56.682969 
L 189.032727 57.588983 
L 192.523636 58.624531 
L 196.014545 59.794389 
L 199.505455 61.10347 
L 202.996364 62.556829 
L 206.487273 64.159669 
L 209.978182 65.917339 
L 213.469091 67.835344 
L 216.96 69.919344 
L 220.450909 72.175163 
L 223.941818 74.608788 
L 227.432727 77.226378 
L 230.923636 80.034263 
L 234.414545 83.038956 
L 237.905455 86.24715 
L 241.396364 89.665727 
L 244.887273 93.301762 
L 248.378182 97.162527 
L 251.869091 101.255497 
L 255.36 105.588356 
L 258.850909 110.168999 
L 262.341818 115.005542 
L 265.832727 120.106324 
L 269.323636 125.479915 
L 272.814545 131.135119 
L 276.305455 137.080984 
L 279.796364 143.326803 
L 283.287273 149.882127 
L 286.778182 156.756763 
L 290.269091 163.96079 
L 293.76 171.504557 
L 297.250909 179.398695 
L 300.741818 187.654124 
L 304.232727 196.282058 
L 307.723636 205.294014 
L 311.214545 235.022389 
L 314.705455 265.963611 
L 318.196364 295.488 
L 321.687273 295.488 
L 325.178182 295.488 
L 328.669091 295.488 
L 332.16 295.488 
L 335.650909 295.488 
L 339.141818 295.488 
L 342.632727 295.488 
L 346.123636 295.488 
L 349.614545 295.488 
L 353.105455 295.488 
L 356.596364 295.488 
L 360.087273 295.488 
L 363.578182 295.488 
L 367.069091 295.488 
L 370.56 295.488 
L 374.050909 295.488 
L 377.541818 295.488 
L 381.032727 295.488 
L 384.523636 295.488 
L 388.014545 295.488 
L 391.505455 295.488 
L 394.996364 295.488 
L 398.487273 295.488 
" clip-path="url(#p142c142221)" style="fill: none; stroke: #0000ff; stroke-width: 1.5; stroke-linecap: square"/>
   </g>
   <g id="line2d_19">
    <path d="M 73.832727 285.969605 
L 77.323636 285.779237 
L 80.814545 285.585062 
L 84.305455 285.387003 
L 87.796364 285.184983 
L 91.287273 284.978923 
L 94.778182 284.768741 
L 98.269091 284.554356 
L 101.76 284.335683 
L 105.250909 282.848708 
L 108.741818 282.595922 
L 112.232727 282.33808 
L 115.723636 282.075082 
L 119.214545 295.488 
L 122.705455 295.488 
L 126.196364 295.488 
L 129.687273 295.488 
L 133.178182 295.488 
L 136.669091 295.488 
L 140.16 295.488 
L 143.650909 295.488 
L 147.141818 295.488 
L 150.632727 295.488 
L 154.123636 295.488 
L 157.614545 295.488 
L 161.105455 295.488 
L 164.596364 295.488 
L 168.087273 295.488 
L 171.578182 295.488 
L 175.069091 295.488 
L 178.56 295.488 
L 182.050909 295.488 
L 185.541818 295.488 
L 189.032727 295.488 
L 192.523636 295.488 
L 196.014545 295.488 
L 199.505455 295.488 
L 202.996364 295.488 
L 206.487273 295.488 
L 209.978182 295.488 
L 213.469091 295.488 
L 216.96 295.488 
L 220.450909 295.488 
L 223.941818 295.488 
L 227.432727 295.488 
L 230.923636 295.488 
L 234.414545 295.488 
L 237.905455 295.488 
L 241.396364 295.488 
L 244.887273 295.488 
L 248.378182 295.488 
L 251.869091 295.488 
L 255.36 295.488 
L 258.850909 295.488 
L 262.341818 295.488 
L 265.832727 295.488 
L 269.323636 295.488 
L 272.814545 295.488 
L 276.305455 295.488 
L 279.796364 295.488 
L 283.287273 295.488 
L 286.778182 295.488 
L 290.269091 295.488 
L 293.76 295.488 
L 297.250909 295.488 
L 300.741818 295.488 
L 304.232727 295.488 
L 307.723636 295.488 
L 311.214545 295.488 
L 314.705455 295.488 
L 318.196364 295.488 
L 321.687273 295.488 
L 325.178182 295.488 
L 328.669091 295.488 
L 332.16 295.488 
L 335.650909 295.488 
L 339.141818 295.488 
L 342.632727 295.488 
L 346.123636 295.488 
L 349.614545 295.488 
L 353.105455 295.488 
L 356.596364 295.488 
L 360.087273 295.488 
L 363.578182 295.488 
L 367.069091 295.488 
L 370.56 295.488 
L 374.050909 295.488 
L 377.541818 295.488 
L 381.032727 295.488 
L 384.523636 295.488 
L 388.014545 295.488 
L 391.505455 295.488 
L 394.996364 295.488 
L 398.487273 295.488 
" clip-path="url(#p142c142221)" style="fill: none; stroke: #e377c2; stroke-width: 1.5; stroke-linecap: square"/>
   </g>
   <g id="line2d_20">
    <path d="M 73.832727 289.671203 
L 77.323636 289.554867 
L 80.814545 289.436204 
L 84.305455 289.315169 
L 87.796364 289.191712 
L 91.287273 289.065786 
L 94.778182 288.937342 
L 98.269091 288.806329 
L 101.76 288.672695 
L 105.250909 295.488 
L 108.741818 295.488 
L 112.232727 295.488 
L 115.723636 295.488 
L 119.214545 295.488 
L 122.705455 295.488 
L 126.196364 295.488 
L 129.687273 295.488 
L 133.178182 295.488 
L 136.669091 295.488 
L 140.16 295.488 
L 143.650909 295.488 
L 147.141818 295.488 
L 150.632727 295.488 
L 154.123636 295.488 
L 157.614545 295.488 
L 161.105455 295.488 
L 164.596364 295.488 
L 168.087273 295.488 
L 171.578182 295.488 
L 175.069091 295.488 
L 178.56 295.488 
L 182.050909 295.488 
L 185.541818 295.488 
L 189.032727 295.488 
L 192.523636 295.488 
L 196.014545 295.488 
L 199.505455 295.488 
L 202.996364 295.488 
L 206.487273 295.488 
L 209.978182 295.488 
L 213.469091 295.488 
L 216.96 295.488 
L 220.450909 295.488 
L 223.941818 295.488 
L 227.432727 295.488 
L 230.923636 295.488 
L 234.414545 295.488 
L 237.905455 295.488 
L 241.396364 295.488 
L 244.887273 295.488 
L 248.378182 295.488 
L 251.869091 295.488 
L 255.36 295.488 
L 258.850909 295.488 
L 262.341818 295.488 
L 265.832727 295.488 
L 269.323636 295.488 
L 272.814545 295.488 
L 276.305455 295.488 
L 279.796364 295.488 
L 283.287273 295.488 
L 286.778182 295.488 
L 290.269091 295.488 
L 293.76 295.488 
L 297.250909 295.488 
L 300.741818 295.488 
L 304.232727 295.488 
L 307.723636 295.488 
L 311.214545 295.488 
L 314.705455 295.488 
L 318.196364 295.488 
L 321.687273 295.488 
L 325.178182 295.488 
L 328.669091 295.488 
L 332.16 295.488 
L 335.650909 295.488 
L 339.141818 295.488 
L 342.632727 295.488 
L 346.123636 295.488 
L 349.614545 295.488 
L 353.105455 295.488 
L 356.596364 295.488 
L 360.087273 295.488 
L 363.578182 295.488 
L 367.069091 295.488 
L 370.56 295.488 
L 374.050909 295.488 
L 377.541818 295.488 
L 381.032727 295.488 
L 384.523636 295.488 
L 388.014545 295.488 
L 391.505455 295.488 
L 394.996364 295.488 
L 398.487273 295.488 
" clip-path="url(#p142c142221)" style="fill: none; stroke: #7f7f7f; stroke-width: 1.5; stroke-linecap: square"/>
   </g>
   <g id="line2d_21">
    <path d="M 73.832727 292.050802 
L 77.323636 291.982058 
L 80.814545 291.911939 
L 84.305455 291.840418 
L 87.796364 291.767466 
L 91.287273 291.693055 
L 94.778182 291.617157 
L 98.269091 291.53974 
L 101.76 291.460774 
L 105.250909 291.38023 
L 108.741818 291.298075 
L 112.232727 291.214276 
L 115.723636 291.128802 
L 119.214545 291.041618 
L 122.705455 290.95269 
L 126.196364 290.861984 
L 129.687273 290.769463 
L 133.178182 290.675093 
L 136.669091 290.578835 
L 140.16 290.480651 
L 143.650909 290.380504 
L 147.141818 290.278354 
L 150.632727 290.174161 
L 154.123636 290.067885 
L 157.614545 289.959482 
L 161.105455 289.848912 
L 164.596364 289.73613 
L 168.087273 289.621093 
L 171.578182 289.503755 
L 175.069091 289.38407 
L 178.56 289.261991 
L 182.050909 289.137471 
L 185.541818 289.01046 
L 189.032727 288.88091 
L 192.523636 288.748768 
L 196.014545 288.613983 
L 199.505455 288.476503 
L 202.996364 288.336273 
L 206.487273 288.193238 
L 209.978182 288.047343 
L 213.469091 287.89853 
L 216.96 287.746741 
L 220.450909 287.591915 
L 223.941818 287.433994 
L 227.432727 287.272914 
L 230.923636 287.108612 
L 234.414545 286.941024 
L 237.905455 286.770085 
L 241.396364 286.595726 
L 244.887273 286.417881 
L 248.378182 286.236478 
L 251.869091 286.051448 
L 255.36 285.862717 
L 258.850909 285.670211 
L 262.341818 285.473856 
L 265.832727 285.273573 
L 269.323636 285.069284 
L 272.814545 284.86091 
L 276.305455 284.648368 
L 279.796364 284.431575 
L 283.287273 284.210447 
L 286.778182 283.984896 
L 290.269091 283.754834 
L 293.76 283.52017 
L 297.250909 283.280814 
L 300.741818 283.03667 
L 304.232727 282.787643 
L 307.723636 282.533636 
L 311.214545 282.274549 
L 314.705455 282.01028 
L 318.196364 281.740726 
L 321.687273 281.46578 
L 325.178182 281.185336 
L 328.669091 280.899282 
L 332.16 280.607508 
L 335.650909 280.309898 
L 339.141818 280.006336 
L 342.632727 279.696703 
L 346.123636 279.380877 
L 349.614545 279.058735 
L 353.105455 278.730149 
L 356.596364 278.394992 
L 360.087273 278.053132 
L 363.578182 277.704435 
L 367.069091 277.348763 
L 370.56 276.985979 
L 374.050909 276.615938 
L 377.541818 276.238497 
L 381.032727 275.853507 
L 384.523636 275.460817 
L 388.014545 275.060273 
L 391.505455 274.651719 
L 394.996364 274.234993 
L 398.487273 273.809933 
" clip-path="url(#p142c142221)" style="fill: none; stroke: #bcbd22; stroke-width: 1.5; stroke-linecap: square"/>
   </g>
   <g id="line2d_22">
    <path d="M 73.832727 295.488 
L 77.323636 295.488 
L 80.814545 295.488 
L 84.305455 295.488 
L 87.796364 295.488 
L 91.287273 295.488 
L 94.778182 295.488 
L 98.269091 295.488 
L 101.76 295.488 
L 105.250909 295.488 
L 108.741818 295.488 
L 112.232727 295.488 
L 115.723636 295.488 
L 119.214545 288.647412 
L 122.705455 288.5106 
L 126.196364 288.371052 
L 129.687273 288.228713 
L 133.178182 288.083527 
L 136.669091 287.935438 
L 140.16 287.784387 
L 143.650909 287.630314 
L 147.141818 287.473161 
L 150.632727 287.312864 
L 154.123636 287.149361 
L 157.614545 286.982588 
L 161.105455 286.81248 
L 164.596364 286.63897 
L 168.087273 286.461989 
L 171.578182 286.281469 
L 175.069091 286.097338 
L 178.56 285.909525 
L 182.050909 285.717955 
L 185.541818 285.522555 
L 189.032727 285.323246 
L 192.523636 285.119951 
L 196.014545 284.91259 
L 199.505455 284.701081 
L 202.996364 284.485343 
L 206.487273 284.26529 
L 209.978182 284.040836 
L 213.469091 283.811892 
L 216.96 283.57837 
L 220.450909 283.340178 
L 223.941818 283.097221 
L 227.432727 282.849406 
L 230.923636 282.596634 
L 234.414545 282.338806 
L 237.905455 282.075822 
L 241.396364 281.807579 
L 244.887273 281.53397 
L 248.378182 281.25489 
L 251.869091 280.970228 
L 255.36 280.679872 
L 258.850909 280.38371 
L 262.341818 280.081624 
L 265.832727 279.773496 
L 269.323636 279.459206 
L 272.814545 279.13863 
L 276.305455 278.811643 
L 279.796364 278.478116 
L 283.287273 278.137918 
L 286.778182 277.790917 
L 290.269091 277.436975 
L 293.76 277.075954 
L 297.250909 276.707713 
L 300.741818 276.332108 
L 304.232727 275.94899 
L 307.723636 275.55821 
L 311.214545 275.159614 
L 314.705455 274.753046 
L 318.196364 274.338347 
L 321.687273 273.915354 
L 325.178182 273.483901 
L 328.669091 273.043819 
L 332.16 272.594936 
L 335.650909 272.137074 
L 339.141818 271.670056 
L 342.632727 271.193697 
L 346.123636 270.707811 
L 349.614545 270.212207 
L 353.105455 269.706691 
L 356.596364 269.191065 
L 360.087273 268.665126 
L 363.578182 268.128669 
L 367.069091 267.581482 
L 370.56 267.023352 
L 374.050909 266.454059 
L 377.541818 265.87338 
L 381.032727 265.281088 
L 384.523636 264.676949 
L 388.014545 264.060728 
L 391.505455 263.432183 
L 394.996364 262.791067 
L 398.487273 262.137128 
" clip-path="url(#p142c142221)" style="fill: none; stroke: #17becf; stroke-width: 1.5; stroke-linecap: square"/>
   </g>
   <g id="line2d_23">
    <path d="M 73.832727 295.488 
L 77.323636 295.488 
L 80.814545 295.488 
L 84.305455 295.488 
L 87.796364 295.488 
L 91.287273 295.488 
L 94.778182 295.488 
L 98.269091 295.488 
L 101.76 295.488 
L 105.250909 295.488 
L 108.741818 295.488 
L 112.232727 295.488 
L 115.723636 295.488 
L 119.214545 209.980646 
L 122.705455 295.488 
L 126.196364 295.488 
L 129.687273 295.488 
L 133.178182 295.488 
L 136.669091 295.488 
L 140.16 295.488 
L 143.650909 295.488 
L 147.141818 295.488 
L 150.632727 295.488 
L 154.123636 295.488 
L 157.614545 295.488 
L 161.105455 295.488 
L 164.596364 295.488 
L 168.087273 295.488 
L 171.578182 295.488 
L 175.069091 295.488 
L 178.56 295.488 
L 182.050909 295.488 
L 185.541818 295.488 
L 189.032727 295.488 
L 192.523636 295.488 
L 196.014545 295.488 
L 199.505455 295.488 
L 202.996364 295.488 
L 206.487273 295.488 
L 209.978182 295.488 
L 213.469091 295.488 
L 216.96 295.488 
L 220.450909 295.488 
L 223.941818 295.488 
L 227.432727 295.488 
L 230.923636 295.488 
L 234.414545 295.488 
L 237.905455 295.488 
L 241.396364 295.488 
L 244.887273 295.488 
L 248.378182 295.488 
L 251.869091 295.488 
L 255.36 295.488 
L 258.850909 295.488 
L 262.341818 295.488 
L 265.832727 295.488 
L 269.323636 295.488 
L 272.814545 295.488 
L 276.305455 295.488 
L 279.796364 295.488 
L 283.287273 295.488 
L 286.778182 295.488 
L 290.269091 295.488 
L 293.76 295.488 
L 297.250909 295.488 
L 300.741818 295.488 
L 304.232727 295.488 
L 307.723636 295.488 
L 311.214545 295.488 
L 314.705455 295.488 
L 318.196364 295.488 
L 321.687273 295.488 
L 325.178182 295.488 
L 328.669091 295.488 
L 332.16 295.488 
L 335.650909 295.488 
L 339.141818 295.488 
L 342.632727 295.488 
L 346.123636 295.488 
L 349.614545 295.488 
L 353.105455 295.488 
L 356.596364 295.488 
L 360.087273 295.488 
L 363.578182 295.488 
L 367.069091 295.488 
L 370.56 295.488 
L 374.050909 295.488 
L 377.541818 295.488 
L 381.032727 295.488 
L 384.523636 295.488 
L 388.014545 295.488 
L 391.505455 295.488 
L 394.996364 295.488 
L 398.487273 295.488 
" clip-path="url(#p142c142221)" style="fill: none; stroke: #1f77b4; stroke-width: 1.5; stroke-linecap: square"/>
   </g>
   <g id="line2d_24">
    <path d="M 73.832727 295.488 
L 77.323636 295.488 
L 80.814545 295.488 
L 84.305455 295.488 
L 87.796364 295.488 
L 91.287273 295.488 
L 94.778182 295.488 
L 98.269091 295.488 
L 101.76 295.488 
L 105.250909 295.488 
L 108.741818 295.488 
L 112.232727 295.488 
L 115.723636 295.488 
L 119.214545 237.342999 
L 122.705455 295.488 
L 126.196364 295.488 
L 129.687273 295.488 
L 133.178182 295.488 
L 136.669091 295.488 
L 140.16 295.488 
L 143.650909 295.488 
L 147.141818 295.488 
L 150.632727 295.488 
L 154.123636 295.488 
L 157.614545 295.488 
L 161.105455 295.488 
L 164.596364 295.488 
L 168.087273 295.488 
L 171.578182 295.488 
L 175.069091 295.488 
L 178.56 295.488 
L 182.050909 295.488 
L 185.541818 295.488 
L 189.032727 295.488 
L 192.523636 295.488 
L 196.014545 295.488 
L 199.505455 295.488 
L 202.996364 295.488 
L 206.487273 295.488 
L 209.978182 295.488 
L 213.469091 295.488 
L 216.96 295.488 
L 220.450909 295.488 
L 223.941818 295.488 
L 227.432727 295.488 
L 230.923636 295.488 
L 234.414545 295.488 
L 237.905455 295.488 
L 241.396364 295.488 
L 244.887273 295.488 
L 248.378182 295.488 
L 251.869091 295.488 
L 255.36 295.488 
L 258.850909 295.488 
L 262.341818 295.488 
L 265.832727 295.488 
L 269.323636 295.488 
L 272.814545 295.488 
L 276.305455 295.488 
L 279.796364 295.488 
L 283.287273 295.488 
L 286.778182 295.488 
L 290.269091 295.488 
L 293.76 295.488 
L 297.250909 295.488 
L 300.741818 295.488 
L 304.232727 295.488 
L 307.723636 295.488 
L 311.214545 295.488 
L 314.705455 295.488 
L 318.196364 295.488 
L 321.687273 295.488 
L 325.178182 295.488 
L 328.669091 295.488 
L 332.16 295.488 
L 335.650909 295.488 
L 339.141818 295.488 
L 342.632727 295.488 
L 346.123636 295.488 
L 349.614545 295.488 
L 353.105455 295.488 
L 356.596364 295.488 
L 360.087273 295.488 
L 363.578182 295.488 
L 367.069091 295.488 
L 370.56 295.488 
L 374.050909 295.488 
L 377.541818 295.488 
L 381.032727 295.488 
L 384.523636 295.488 
L 388.014545 295.488 
L 391.505455 295.488 
L 394.996364 295.488 
L 398.487273 295.488 
" clip-path="url(#p142c142221)" style="fill: none; stroke: #ff7f0e; stroke-width: 1.5; stroke-linecap: square"/>
   </g>
   <g id="patch_3">
    <path d="M 57.6 307.584 
L 57.6 41.472 
" style="fill: none; stroke: #000000; stroke-width: 0.8; stroke-linejoin: miter; stroke-linecap: square"/>
   </g>
   <g id="patch_4">
    <path d="M 414.72 307.584 
L 414.72 41.472 
" style="fill: none; stroke: #000000; stroke-width: 0.8; stroke-linejoin: miter; stroke-linecap: square"/>
   </g>
   <g id="patch_5">
    <path d="M 57.6 307.584 
L 414.72 307.584 
" style="fill: none; stroke: #000000; stroke-width: 0.8; stroke-linejoin: miter; stroke-linecap: square"/>
   </g>
   <g id="patch_6">
    <path d="M 57.6 41.472 
L 414.72 41.472 
" style="fill: none; stroke: #000000; stroke-width: 0.8; stroke-linejoin: miter; stroke-linecap: square"/>
   </g>
   <g id="text_14">
    <!-- Cash Flow Forecast -->
    <g transform="translate(178.47375 35.472) scale(0.12 -0.12)">
     <defs>
      <path id="DejaVuSans-43" d="M 4122 4306 
L 4122 3641 
Q 3803 3938 3442 4084 
Q 3081 4231 2675 4231 
Q 1875 4231 1450 3742 
Q 1025 3253 1025 2328 
Q 1025 1406 1450 917 
Q 1875 428 2675 428 
Q 3081 428 3442 575 
Q 3803 722 4122 1019 
L 4122 359 
Q 3791 134 3420 21 
Q 3050 -91 2638 -91 
Q 1578 -91 968 557 
Q 359 1206 359 2328 
Q 359 3453 968 4101 
Q 1578 4750 2638 4750 
Q 3056 4750 3426 4639 
Q 3797 4528 4122 4306 
z
" transform="scale(0.015625)"/>
      <path id="DejaVuSans-61" d="M 2194 1759 
Q 1497 1759 1228 1600 
Q 959 1441 959 1056 
Q 959 750 1161 570 
Q 1363 391 1709 391 
Q 2188 391 2477 730 
Q 2766 1069 2766 1631 
L 2766 1759 
L 2194 1759 
z
M 3341 1997 
L 3341 0 
L 2766 0 
L 2766 531 
Q 2569 213 2275 61 
Q 1981 -91 1556 -91 
Q 1019 -91 701 211 
Q 384 513 384 1019 
Q 384 1609 779 1909 
Q 1175 2209 1959 2209 
L 2766 2209 
L 2766 2266 
Q 2766 2663 2505 2880 
Q 2244 3097 1772 3097 
Q 1472 3097 1187 3025 
Q 903 2953 641 2809 
L 641 3341 
Q 956 3463 1253 3523 
Q 1550 3584 1831 3584 
Q 2591 3584 2966 3190 
Q 3341 2797 3341 1997 
z
" transform="scale(0.015625)"/>
      <path id="DejaVuSans-73" d="M 2834 3397 
L 2834 2853 
Q 2591 2978 2328 3040 
Q 2066 3103 1784 3103 
Q 1356 3103 1142 2972 
Q 928 2841 928 2578 
Q 928 2378 1081 2264 
Q 1234 2150 1697 2047 
L 1894 2003 
Q 2506 1872 2764 1633 
Q 3022 1394 3022 966 
Q 3022 478 2636 193 
Q 2250 -91 1575 -91 
Q 1294 -91 989 -36 
Q 684 19 347 128 
L 347 722 
Q 666 556 975 473 
Q 1284 391 1588 391 
Q 1994 391 2212 530 
Q 2431 669 2431 922 
Q 2431 1156 2273 1281 
Q 2116 1406 1581 1522 
L 1381 1569 
Q 847 1681 609 1914 
Q 372 2147 372 2553 
Q 372 3047 722 3315 
Q 1072 3584 1716 3584 
Q 2034 3584 2315 3537 
Q 2597 3491 2834 3397 
z
" transform="scale(0.015625)"/>
      <path id="DejaVuSans-68" d="M 3513 2113 
L 3513 0 
L 2938 0 
L 2938 2094 
Q 2938 2591 2744 2837 
Q 2550 3084 2163 3084 
Q 1697 3084 1428 2787 
Q 1159 2491 1159 1978 
L 1159 0 
L 581 0 
L 581 4863 
L 1159 4863 
L 1159 2956 
Q 1366 3272 1645 3428 
Q 1925 3584 2291 3584 
Q 2894 3584 3203 3211 
Q 3513 2838 3513 2113 
z
" transform="scale(0.015625)"/>
      <path id="DejaVuSans-20" transform="scale(0.015625)"/>
      <path id="DejaVuSans-46" d="M 628 4666 
L 3309 4666 
L 3309 4134 
L 1259 4134 
L 1259 2759 
L 3109 2759 
L 3109 2228 
L 1259 2228 
L 1259 0 
L 628 0 
L 628 4666 
z
" transform="scale(0.015625)"/>
      <path id="DejaVuSans-6c" d="M 603 4863 
L 1178 4863 
L 1178 0 
L 603 0 
L 603 4863 
z
" transform="scale(0.015625)"/>
      <path id="DejaVuSans-6f" d="M 1959 3097 
Q 1497 3097 1228 2736 
Q 959 2375 959 1747 
Q 959 1119 1226 758 
Q 1494 397 1959 397 
Q 2419 397 2687 759 
Q 2956 1122 2956 1747 
Q 2956 2369 2687 2733 
Q 2419 3097 1959 3097 
z
M 1959 3584 
Q 2709 3584 3137 3096 
Q 3566 2609 3566 1747 
Q 3566 888 3137 398 
Q 2709 -91 1959 -91 
Q 1206 -91 779 398 
Q 353 888 353 1747 
Q 353 2609 779 3096 
Q 1206 3584 1959 3584 
z
" transform="scale(0.015625)"/>
      <path id="DejaVuSans-77" d="M 269 3500 
L 844 3500 
L 1563 769 
L 2278 3500 
L 2956 3500 
L 3675 769 
L 4391 3500 
L 4966 3500 
L 4050 0 
L 3372 0 
L 2619 2869 
L 1863 0 
L 1184 0 
L 269 3500 
z
" transform="scale(0.015625)"/>
      <path id="DejaVuSans-72" d="M 2631 2963 
Q 2534 3019 2420 3045 
Q 2306 3072 2169 3072 
Q 1681 3072 1420 2755 
Q 1159 2438 1159 1844 
L 1159 0 
L 581 0 
L 581 3500 
L 1159 3500 
L 1159 2956 
Q 1341 3275 1631 3429 
Q 1922 3584 2338 3584 
Q 2397 3584 2469 3576 
Q 2541 3569 2628 3553 
L 2631 2963 
z
" transform="scale(0.015625)"/>
      <path id="DejaVuSans-63" d="M 3122 3366 
L 3122 2828 
Q 2878 2963 2633 3030 
Q 2388 3097 2138 3097 
Q 1578 3097 1268 2742 
Q 959 2388 959 1747 
Q 959 1106 1268 751 
Q 1578 397 2138 397 
Q 2388 397 2633 464 
Q 2878 531 3122 666 
L 3122 134 
Q 2881 22 2623 -34 
Q 2366 -91 2075 -91 
Q 1284 -91 818 406 
Q 353 903 353 1747 
Q 353 2603 823 3093 
Q 1294 3584 2113 3584 
Q 2378 3584 2631 3529 
Q 2884 3475 3122 3366 
z
" transform="scale(0.015625)"/>
      <path id="DejaVuSans-74" d="M 1172 4494 
L 1172 3500 
L 2356 3500 
L 2356 3053 
L 1172 3053 
L 1172 1153 
Q 1172 725 1289 603 
Q 1406 481 1766 481 
L 2356 481 
L 2356 0 
L 1766 0 
Q 1100 0 847 248 
Q 594 497 594 1153 
L 594 3053 
L 172 3053 
L 172 3500 
L 594 3500 
L 594 4494 
L 1172 4494 
z
" transform="scale(0.015625)"/>
     </defs>
     <use xlink:href="#DejaVuSans-43"/>
     <use xlink:href="#DejaVuSans-61" x="69.824219"/>
     <use xlink:href="#DejaVuSans-73" x="131.103516"/>
     <use xlink:href="#DejaVuSans-68" x="183.203125"/>
     <use xlink:href="#DejaVuSans-20" x="246.582031"/>
     <use xlink:href="#DejaVuSans-46" x="278.369141"/>
     <use xlink:href="#DejaVuSans-6c" x="335.888672"/>
     <use xlink:href="#DejaVuSans-6f" x="363.671875"/>
     <use xlink:href="#DejaVuSans-77" x="424.853516"/>
     <use xlink:href="#DejaVuSans-20" x="506.640625"/>
     <use xlink:href="#DejaVuSans-46" x="538.427734"/>
     <use xlink:href="#DejaVuSans-6f" x="592.322266"/>
     <use xlink:href="#DejaVuSans-72" x="653.503906"/>
     <use xlink:href="#DejaVuSans-65" x="692.367188"/>
     <use xlink:href="#DejaVuSans-63" x="753.890625"/>
     <use xlink:href="#DejaVuSans-61" x="808.871094"/>
     <use xlink:href="#DejaVuSans-73" x="870.150391"/>
     <use xlink:href="#DejaVuSans-74" x="922.25"/>
    </g>
   </g>
  </g>
 </g>
 <defs>
  <clipPath id="p142c142221">
   <rect x="57.6" y="41.472" width="357.12" height="266.112"/>
  </clipPath>
 </defs>
</svg>
